v 0.00000000 0.00000000 0.00000000
v 0.08900000 0.00000000 0.00000000
v 0.08222528 0.03405883 0.00000000
v 0.06293250 0.06293250 0.00000000
v 0.03405883 0.08222528 0.00000000
v 0.00000000 0.08900000 0.00000000
v -0.03405883 0.08222528 0.00000000
v -0.06293250 0.06293250 0.00000000
v -0.08222528 0.03405883 0.00000000
v -0.08900000 0.00000000 0.00000000
v -0.08222528 -0.03405883 0.00000000
v -0.06293250 -0.06293250 0.00000000
v -0.03405883 -0.08222528 0.00000000
v -0.00000000 -0.08900000 0.00000000
v 0.03405883 -0.08222528 0.00000000
v 0.06293250 -0.06293250 0.00000000
v 0.08222528 -0.03405883 0.00000000
v 0.10000000 0.00000000 0.00500000
v 0.09238795 0.03826834 0.00500000
v 0.07071068 0.07071068 0.00500000
v 0.03826834 0.09238795 0.00500000
v 0.00000000 0.10000000 0.00500000
v -0.03826834 0.09238795 0.00500000
v -0.07071068 0.07071068 0.00500000
v -0.09238795 0.03826834 0.00500000
v -0.10000000 0.00000000 0.00500000
v -0.09238795 -0.03826834 0.00500000
v -0.07071068 -0.07071068 0.00500000
v -0.03826834 -0.09238795 0.00500000
v -0.00000000 -0.10000000 0.00500000
v 0.03826834 -0.09238795 0.00500000
v 0.07071068 -0.07071068 0.00500000
v 0.09238795 -0.03826834 0.00500000
v 0.10000000 0.00000000 0.01900000
v 0.09238795 0.03826834 0.01900000
v 0.07071068 0.07071068 0.01900000
v 0.03826834 0.09238795 0.01900000
v 0.00000000 0.10000000 0.01900000
v -0.03826834 0.09238795 0.01900000
v -0.07071068 0.07071068 0.01900000
v -0.09238795 0.03826834 0.01900000
v -0.10000000 0.00000000 0.01900000
v -0.09238795 -0.03826834 0.01900000
v -0.07071068 -0.07071068 0.01900000
v -0.03826834 -0.09238795 0.01900000
v -0.00000000 -0.10000000 0.01900000
v 0.03826834 -0.09238795 0.01900000
v 0.07071068 -0.07071068 0.01900000
v 0.09238795 -0.03826834 0.01900000
v 0.08900000 0.00000000 0.02700000
v 0.08222528 0.03405883 0.02700000
v 0.06293250 0.06293250 0.02700000
v 0.03405883 0.08222528 0.02700000
v 0.00000000 0.08900000 0.02700000
v -0.03405883 0.08222528 0.02700000
v -0.06293250 0.06293250 0.02700000
v -0.08222528 0.03405883 0.02700000
v -0.08900000 0.00000000 0.02700000
v -0.08222528 -0.03405883 0.02700000
v -0.06293250 -0.06293250 0.02700000
v -0.03405883 -0.08222528 0.02700000
v -0.00000000 -0.08900000 0.02700000
v 0.03405883 -0.08222528 0.02700000
v 0.06293250 -0.06293250 0.02700000
v 0.08222528 -0.03405883 0.02700000
v 0.00000000 0.00000000 0.02700000
v -0.04600000 0.00000000 0.02600000
v -0.02300000 0.00000000 0.02600000
v -0.02608142 0.01150000 0.02600000
v -0.03450000 0.01991858 0.02600000
v -0.04600000 0.02300000 0.02600000
v -0.05750000 0.01991858 0.02600000
v -0.06591858 0.01150000 0.02600000
v -0.06900000 0.00000000 0.02600000
v -0.06591858 -0.01150000 0.02600000
v -0.05750000 -0.01991858 0.02600000
v -0.04600000 -0.02300000 0.02600000
v -0.03450000 -0.01991858 0.02600000
v -0.02608142 -0.01150000 0.02600000
v -0.02300000 0.00000000 0.04400000
v -0.02608142 0.01150000 0.04400000
v -0.03450000 0.01991858 0.04400000
v -0.04600000 0.02300000 0.04400000
v -0.05750000 0.01991858 0.04400000
v -0.06591858 0.01150000 0.04400000
v -0.06900000 0.00000000 0.04400000
v -0.06591858 -0.01150000 0.04400000
v -0.05750000 -0.01991858 0.04400000
v -0.04600000 -0.02300000 0.04400000
v -0.03450000 -0.01991858 0.04400000
v -0.02608142 -0.01150000 0.04400000
v -0.02800000 0.00000000 0.04700000
v -0.03041154 0.00900000 0.04700000
v -0.03700000 0.01558846 0.04700000
v -0.04600000 0.01800000 0.04700000
v -0.05500000 0.01558846 0.04700000
v -0.06158846 0.00900000 0.04700000
v -0.06400000 0.00000000 0.04700000
v -0.06158846 -0.00900000 0.04700000
v -0.05500000 -0.01558846 0.04700000
v -0.04600000 -0.01800000 0.04700000
v -0.03700000 -0.01558846 0.04700000
v -0.03041154 -0.00900000 0.04700000
v -0.04600000 0.00000000 0.04700000
v -0.05588971 -0.00900000 0.03951893
v -0.03611029 -0.00900000 0.04248107
v -0.03611029 0.00900000 0.04248107
v -0.05588971 0.00900000 0.03951893
v -0.08688971 -0.00900000 0.24651893
v -0.06711029 -0.00900000 0.24948107
v -0.06711029 0.00900000 0.24948107
v -0.08688971 0.00900000 0.24651893
v -0.08348417 -0.00800000 0.25424144
v -0.07051583 -0.00800000 0.24175856
v -0.07051583 0.00800000 0.24175856
v -0.08348417 0.00800000 0.25424144
v 0.09651583 -0.00800000 0.44124144
v 0.10948417 -0.00800000 0.42875856
v 0.10948417 0.00800000 0.42875856
v 0.09651583 0.00800000 0.44124144
v -0.07700000 -0.01700000 0.24800000
v -0.07700000 -0.01700000 0.26800000
v -0.06700000 -0.01700000 0.26532051
v -0.05967949 -0.01700000 0.25800000
v -0.05700000 -0.01700000 0.24800000
v -0.05967949 -0.01700000 0.23800000
v -0.06700000 -0.01700000 0.23067949
v -0.07700000 -0.01700000 0.22800000
v -0.08700000 -0.01700000 0.23067949
v -0.09432051 -0.01700000 0.23800000
v -0.09700000 -0.01700000 0.24800000
v -0.09432051 -0.01700000 0.25800000
v -0.08700000 -0.01700000 0.26532051
v -0.07700000 -0.01200000 0.27100000
v -0.06550000 -0.01200000 0.26791858
v -0.05708142 -0.01200000 0.25950000
v -0.05400000 -0.01200000 0.24800000
v -0.05708142 -0.01200000 0.23650000
v -0.06550000 -0.01200000 0.22808142
v -0.07700000 -0.01200000 0.22500000
v -0.08850000 -0.01200000 0.22808142
v -0.09691858 -0.01200000 0.23650000
v -0.10000000 -0.01200000 0.24800000
v -0.09691858 -0.01200000 0.25950000
v -0.08850000 -0.01200000 0.26791858
v -0.07700000 0.01200000 0.27100000
v -0.06550000 0.01200000 0.26791858
v -0.05708142 0.01200000 0.25950000
v -0.05400000 0.01200000 0.24800000
v -0.05708142 0.01200000 0.23650000
v -0.06550000 0.01200000 0.22808142
v -0.07700000 0.01200000 0.22500000
v -0.08850000 0.01200000 0.22808142
v -0.09691858 0.01200000 0.23650000
v -0.10000000 0.01200000 0.24800000
v -0.09691858 0.01200000 0.25950000
v -0.08850000 0.01200000 0.26791858
v -0.07700000 0.01700000 0.26800000
v -0.06700000 0.01700000 0.26532051
v -0.05967949 0.01700000 0.25800000
v -0.05700000 0.01700000 0.24800000
v -0.05967949 0.01700000 0.23800000
v -0.06700000 0.01700000 0.23067949
v -0.07700000 0.01700000 0.22800000
v -0.08700000 0.01700000 0.23067949
v -0.09432051 0.01700000 0.23800000
v -0.09700000 0.01700000 0.24800000
v -0.09432051 0.01700000 0.25800000
v -0.08700000 0.01700000 0.26532051
v -0.07700000 0.01700000 0.24800000
v -0.07700000 -0.02000000 0.24800000
v -0.07700000 -0.02000000 0.25700000
v -0.07063604 -0.02000000 0.25436396
v -0.06800000 -0.02000000 0.24800000
v -0.07063604 -0.02000000 0.24163604
v -0.07700000 -0.02000000 0.23900000
v -0.08336396 -0.02000000 0.24163604
v -0.08600000 -0.02000000 0.24800000
v -0.08336396 -0.02000000 0.25436396
v -0.07700000 -0.01700000 0.25700000
v -0.07063604 -0.01700000 0.25436396
v -0.06800000 -0.01700000 0.24800000
v -0.07063604 -0.01700000 0.24163604
v -0.07700000 -0.01700000 0.23900000
v -0.08336396 -0.01700000 0.24163604
v -0.08600000 -0.01700000 0.24800000
v -0.08336396 -0.01700000 0.25436396
v 0.10300000 -0.01700000 0.43500000
v 0.10300000 -0.01700000 0.45500000
v 0.11300000 -0.01700000 0.45232051
v 0.12032051 -0.01700000 0.44500000
v 0.12300000 -0.01700000 0.43500000
v 0.12032051 -0.01700000 0.42500000
v 0.11300000 -0.01700000 0.41767949
v 0.10300000 -0.01700000 0.41500000
v 0.09300000 -0.01700000 0.41767949
v 0.08567949 -0.01700000 0.42500000
v 0.08300000 -0.01700000 0.43500000
v 0.08567949 -0.01700000 0.44500000
v 0.09300000 -0.01700000 0.45232051
v 0.10300000 -0.01200000 0.45800000
v 0.11450000 -0.01200000 0.45491858
v 0.12291858 -0.01200000 0.44650000
v 0.12600000 -0.01200000 0.43500000
v 0.12291858 -0.01200000 0.42350000
v 0.11450000 -0.01200000 0.41508142
v 0.10300000 -0.01200000 0.41200000
v 0.09150000 -0.01200000 0.41508142
v 0.08308142 -0.01200000 0.42350000
v 0.08000000 -0.01200000 0.43500000
v 0.08308142 -0.01200000 0.44650000
v 0.09150000 -0.01200000 0.45491858
v 0.10300000 0.01200000 0.45800000
v 0.11450000 0.01200000 0.45491858
v 0.12291858 0.01200000 0.44650000
v 0.12600000 0.01200000 0.43500000
v 0.12291858 0.01200000 0.42350000
v 0.11450000 0.01200000 0.41508142
v 0.10300000 0.01200000 0.41200000
v 0.09150000 0.01200000 0.41508142
v 0.08308142 0.01200000 0.42350000
v 0.08000000 0.01200000 0.43500000
v 0.08308142 0.01200000 0.44650000
v 0.09150000 0.01200000 0.45491858
v 0.10300000 0.01700000 0.45500000
v 0.11300000 0.01700000 0.45232051
v 0.12032051 0.01700000 0.44500000
v 0.12300000 0.01700000 0.43500000
v 0.12032051 0.01700000 0.42500000
v 0.11300000 0.01700000 0.41767949
v 0.10300000 0.01700000 0.41500000
v 0.09300000 0.01700000 0.41767949
v 0.08567949 0.01700000 0.42500000
v 0.08300000 0.01700000 0.43500000
v 0.08567949 0.01700000 0.44500000
v 0.09300000 0.01700000 0.45232051
v 0.10300000 0.01700000 0.43500000
v 0.10300000 -0.02000000 0.43500000
v 0.10300000 -0.02000000 0.44400000
v 0.10936396 -0.02000000 0.44136396
v 0.11200000 -0.02000000 0.43500000
v 0.10936396 -0.02000000 0.42863604
v 0.10300000 -0.02000000 0.42600000
v 0.09663604 -0.02000000 0.42863604
v 0.09400000 -0.02000000 0.43500000
v 0.09663604 -0.02000000 0.44136396
v 0.10300000 -0.01700000 0.44400000
v 0.10936396 -0.01700000 0.44136396
v 0.11200000 -0.01700000 0.43500000
v 0.10936396 -0.01700000 0.42863604
v 0.10300000 -0.01700000 0.42600000
v 0.09663604 -0.01700000 0.42863604
v 0.09400000 -0.01700000 0.43500000
v 0.09663604 -0.01700000 0.44136396
v 0.11520436 0.00000000 0.45779864
v 0.14067926 0.00000000 0.46299760
v 0.13874010 0.00994977 0.46260186
v 0.13321784 0.01838478 0.46147486
v 0.12495318 0.02402087 0.45978820
v 0.11520436 0.02600000 0.45779864
v 0.10545553 0.02402087 0.45580909
v 0.09719088 0.01838478 0.45412242
v 0.09166861 0.00994977 0.45299543
v 0.08972945 0.00000000 0.45259968
v 0.09166861 -0.00994977 0.45299543
v 0.09719088 -0.01838478 0.45412242
v 0.10545553 -0.02402087 0.45580909
v 0.11520436 -0.02600000 0.45779864
v 0.12495318 -0.02402087 0.45978820
v 0.13321784 -0.01838478 0.46147486
v 0.13874010 -0.00994977 0.46260186
v 0.15109718 0.00000000 0.45695881
v 0.14848677 0.01339392 0.45642607
v 0.14105295 0.02474874 0.45490897
v 0.12992746 0.03233578 0.45263846
v 0.11680404 0.03500000 0.44996021
v 0.10368062 0.03233578 0.44728196
v 0.09255513 0.02474874 0.44501145
v 0.08512131 0.01339392 0.44349435
v 0.08251090 0.00000000 0.44296161
v 0.08512131 -0.01339392 0.44349435
v 0.09255513 -0.02474874 0.44501145
v 0.10368062 -0.03233578 0.44728196
v 0.11680404 -0.03500000 0.44996021
v 0.12992746 -0.03233578 0.45263846
v 0.14105295 -0.02474874 0.45490897
v 0.14848677 -0.01339392 0.45642607
v 0.20984543 0.00000000 0.37913437
v 0.20410253 0.02946662 0.37796235
v 0.18774813 0.05444722 0.37462472
v 0.16327204 0.07113872 0.36962960
v 0.13440052 0.07700000 0.36373745
v 0.10552900 0.07113872 0.35784531
v 0.08105291 0.05444722 0.35285019
v 0.06469851 0.02946662 0.34951255
v 0.05895561 0.00000000 0.34834053
v 0.06469851 -0.02946662 0.34951255
v 0.08105291 -0.05444722 0.35285019
v 0.10552900 -0.07113872 0.35784531
v 0.13440052 -0.07700000 0.36373745
v 0.16327204 -0.07113872 0.36962960
v 0.18774813 -0.05444722 0.37462472
v 0.20410253 -0.02946662 0.37796235
v 0.21538432 0.00000000 0.36699680
v 0.20941767 0.03061467 0.36577912
v 0.19242609 0.05656854 0.36231145
v 0.16699638 0.07391036 0.35712171
v 0.13700000 0.08000000 0.35100000
v 0.10700362 0.07391036 0.34487829
v 0.08157391 0.05656854 0.33968855
v 0.06458233 0.03061467 0.33622088
v 0.05861568 0.00000000 0.33500320
v 0.06458233 -0.03061467 0.33622088
v 0.08157391 -0.05656854 0.33968855
v 0.10700362 -0.07391036 0.34487829
v 0.13700000 -0.08000000 0.35100000
v 0.16699638 -0.07391036 0.35712171
v 0.19242609 -0.05656854 0.36231145
v 0.20941767 -0.03061467 0.36577912
v 0.21048530 0.00000000 0.36599700
v 0.20489157 0.02870126 0.36485542
v 0.18896196 0.05303301 0.36160448
v 0.16512161 0.06929096 0.35673910
v 0.13700000 0.07500000 0.35100000
v 0.10887839 0.06929096 0.34526090
v 0.08503804 0.05303301 0.34039552
v 0.06910843 0.02870126 0.33714458
v 0.06351470 0.00000000 0.33600300
v 0.06910843 -0.02870126 0.33714458
v 0.08503804 -0.05303301 0.34039552
v 0.10887839 -0.06929096 0.34526090
v 0.13700000 -0.07500000 0.35100000
v 0.16512161 -0.06929096 0.35673910
v 0.18896196 -0.05303301 0.36160448
v 0.20489157 -0.02870126 0.36485542
v 0.20514637 0.00000000 0.37715477
v 0.19977639 0.02755321 0.37605885
v 0.18448396 0.05091169 0.37293795
v 0.16159722 0.06651933 0.36826719
v 0.13460048 0.07200000 0.36275765
v 0.10760374 0.06651933 0.35724811
v 0.08471700 0.05091169 0.35257735
v 0.06942457 0.02755321 0.34945644
v 0.06405459 0.00000000 0.34836053
v 0.06942457 -0.02755321 0.34945644
v 0.08471700 -0.05091169 0.35257735
v 0.10760374 -0.06651933 0.35724811
v 0.13460048 -0.07200000 0.36275765
v 0.16159722 -0.06651933 0.36826719
v 0.18448396 -0.05091169 0.37293795
v 0.19977639 -0.02755321 0.37605885
v 0.14719796 0.00000000 0.45105999
v 0.14496047 0.01148050 0.45060336
v 0.13858862 0.02121320 0.44930298
v 0.12905248 0.02771639 0.44735683
v 0.11780384 0.03000000 0.44506119
v 0.10655520 0.02771639 0.44276555
v 0.09701906 0.02121320 0.44081940
v 0.09064721 0.01148050 0.43951902
v 0.08840972 0.00000000 0.43906239
v 0.09064721 -0.01148050 0.43951902
v 0.09701906 -0.02121320 0.44081940
v 0.10655520 -0.02771639 0.44276555
v 0.11780384 -0.03000000 0.44506119
v 0.12905248 -0.02771639 0.44735683
v 0.13858862 -0.02121320 0.44930298
v 0.14496047 -0.01148050 0.45060336
v 0.11720396 0.00000000 0.44800060
v 0.13180104 0.00000000 0.37647491
v 0.19156909 0.00000000 0.38867247
v 0.18701952 0.02334369 0.38774398
v 0.17406343 0.04313351 0.38509988
v 0.15467328 0.05635665 0.38114271
v 0.13180104 0.06100000 0.37647491
v 0.10892880 0.05635665 0.37180710
v 0.08953865 0.04313351 0.36784993
v 0.07658256 0.02334369 0.36520583
v 0.07203299 0.00000000 0.36427734
v 0.07658256 -0.02334369 0.36520583
v 0.08953865 -0.04313351 0.36784993
v 0.10892880 -0.05635665 0.37180710
v 0.13180104 -0.06100000 0.37647491
v 0.15467328 -0.05635665 0.38114271
v 0.17406343 -0.04313351 0.38509988
v 0.18701952 -0.02334369 0.38774398
v 0.19056929 0.00000000 0.39357149
v 0.18601972 0.02334369 0.39264300
v 0.17306363 0.04313351 0.38999890
v 0.15367348 0.05635665 0.38604173
v 0.13080124 0.06100000 0.38137393
v 0.10792900 0.05635665 0.37670612
v 0.08853885 0.04313351 0.37274895
v 0.07558276 0.02334369 0.37010485
v 0.07103319 0.00000000 0.36917637
v 0.07558276 -0.02334369 0.37010485
v 0.08853885 -0.04313351 0.37274895
v 0.10792900 -0.05635665 0.37670612
v 0.13080124 -0.06100000 0.38137393
v 0.15367348 -0.05635665 0.38604173
v 0.17306363 -0.04313351 0.38999890
v 0.18601972 -0.02334369 0.39264300
v 0.13080124 0.00000000 0.38137393
v 0.03800000 -0.04200000 0.02700000
v 0.04700000 -0.04200000 0.02700000
v 0.04436396 -0.03563604 0.02700000
v 0.03800000 -0.03300000 0.02700000
v 0.03163604 -0.03563604 0.02700000
v 0.02900000 -0.04200000 0.02700000
v 0.03163604 -0.04836396 0.02700000
v 0.03800000 -0.05100000 0.02700000
v 0.04436396 -0.04836396 0.02700000
v 0.04700000 -0.04200000 0.03100000
v 0.04436396 -0.03563604 0.03100000
v 0.03800000 -0.03300000 0.03100000
v 0.03163604 -0.03563604 0.03100000
v 0.02900000 -0.04200000 0.03100000
v 0.03163604 -0.04836396 0.03100000
v 0.03800000 -0.05100000 0.03100000
v 0.04436396 -0.04836396 0.03100000
v 0.03800000 -0.04200000 0.03100000
s off
o Head
f 256 257 255
f 257 258 255
f 258 259 255
f 259 260 255
f 260 261 255
f 261 262 255
f 262 263 255
f 263 264 255
f 264 265 255
f 265 266 255
f 266 267 255
f 267 268 255
f 268 269 255
f 269 270 255
f 270 271 255
f 271 256 255
f 273 257 256
f 272 273 256
f 274 258 257
f 273 274 257
f 275 259 258
f 274 275 258
f 276 260 259
f 275 276 259
f 277 261 260
f 276 277 260
f 278 262 261
f 277 278 261
f 279 263 262
f 278 279 262
f 280 264 263
f 279 280 263
f 281 265 264
f 280 281 264
f 282 266 265
f 281 282 265
f 283 267 266
f 282 283 266
f 284 268 267
f 283 284 267
f 285 269 268
f 284 285 268
f 286 270 269
f 285 286 269
f 287 271 270
f 286 287 270
f 272 256 271
f 287 272 271
f 289 273 272
f 288 289 272
f 290 274 273
f 289 290 273
f 291 275 274
f 290 291 274
f 292 276 275
f 291 292 275
f 293 277 276
f 292 293 276
f 294 278 277
f 293 294 277
f 295 279 278
f 294 295 278
f 296 280 279
f 295 296 279
f 297 281 280
f 296 297 280
f 298 282 281
f 297 298 281
f 299 283 282
f 298 299 282
f 300 284 283
f 299 300 283
f 301 285 284
f 300 301 284
f 302 286 285
f 301 302 285
f 303 287 286
f 302 303 286
f 288 272 287
f 303 288 287
f 305 289 288
f 304 305 288
f 306 290 289
f 305 306 289
f 307 291 290
f 306 307 290
f 308 292 291
f 307 308 291
f 309 293 292
f 308 309 292
f 310 294 293
f 309 310 293
f 311 295 294
f 310 311 294
f 312 296 295
f 311 312 295
f 313 297 296
f 312 313 296
f 314 298 297
f 313 314 297
f 315 299 298
f 314 315 298
f 316 300 299
f 315 316 299
f 317 301 300
f 316 317 300
f 318 302 301
f 317 318 301
f 319 303 302
f 318 319 302
f 304 288 303
f 319 304 303
f 321 305 304
f 320 321 304
f 322 306 305
f 321 322 305
f 323 307 306
f 322 323 306
f 324 308 307
f 323 324 307
f 325 309 308
f 324 325 308
f 326 310 309
f 325 326 309
f 327 311 310
f 326 327 310
f 328 312 311
f 327 328 311
f 329 313 312
f 328 329 312
f 330 314 313
f 329 330 313
f 331 315 314
f 330 331 314
f 332 316 315
f 331 332 315
f 333 317 316
f 332 333 316
f 334 318 317
f 333 334 317
f 335 319 318
f 334 335 318
f 320 304 319
f 335 320 319
f 337 321 320
f 336 337 320
f 338 322 321
f 337 338 321
f 339 323 322
f 338 339 322
f 340 324 323
f 339 340 323
f 341 325 324
f 340 341 324
f 342 326 325
f 341 342 325
f 343 327 326
f 342 343 326
f 344 328 327
f 343 344 327
f 345 329 328
f 344 345 328
f 346 330 329
f 345 346 329
f 347 331 330
f 346 347 330
f 348 332 331
f 347 348 331
f 349 333 332
f 348 349 332
f 350 334 333
f 349 350 333
f 351 335 334
f 350 351 334
f 336 320 335
f 351 336 335
f 353 337 336
f 352 353 336
f 354 338 337
f 353 354 337
f 355 339 338
f 354 355 338
f 356 340 339
f 355 356 339
f 357 341 340
f 356 357 340
f 358 342 341
f 357 358 341
f 359 343 342
f 358 359 342
f 360 344 343
f 359 360 343
f 361 345 344
f 360 361 344
f 362 346 345
f 361 362 345
f 363 347 346
f 362 363 346
f 364 348 347
f 363 364 347
f 365 349 348
f 364 365 348
f 366 350 349
f 365 366 349
f 367 351 350
f 366 367 350
f 352 336 351
f 367 352 351
f 368 353 352
f 368 354 353
f 368 355 354
f 368 356 355
f 368 357 356
f 368 358 357
f 368 359 358
f 368 360 359
f 368 361 360
f 368 362 361
f 368 363 362
f 368 364 363
f 368 365 364
f 368 366 365
f 368 367 366
f 368 352 367
f 369 371 370
f 369 372 371
f 369 373 372
f 369 374 373
f 369 375 374
f 369 376 375
f 369 377 376
f 369 378 377
f 369 379 378
f 369 380 379
f 369 381 380
f 369 382 381
f 369 383 382
f 369 384 383
f 369 385 384
f 369 370 385
f 370 371 387
f 370 387 386
f 371 372 388
f 371 388 387
f 372 373 389
f 372 389 388
f 373 374 390
f 373 390 389
f 374 375 391
f 374 391 390
f 375 376 392
f 375 392 391
f 376 377 393
f 376 393 392
f 377 378 394
f 377 394 393
f 378 379 395
f 378 395 394
f 379 380 396
f 379 396 395
f 380 381 397
f 380 397 396
f 381 382 398
f 381 398 397
f 382 383 399
f 382 399 398
f 383 384 400
f 383 400 399
f 384 385 401
f 384 401 400
f 385 370 386
f 385 386 401
f 386 387 402
f 387 388 402
f 388 389 402
f 389 390 402
f 390 391 402
f 391 392 402
f 392 393 402
f 393 394 402
f 394 395 402
f 395 396 402
f 396 397 402
f 397 398 402
f 398 399 402
f 399 400 402
f 400 401 402
f 401 386 402
o Rest
f 1 3 2
f 1 4 3
f 1 5 4
f 1 6 5
f 1 7 6
f 1 8 7
f 1 9 8
f 1 10 9
f 1 11 10
f 1 12 11
f 1 13 12
f 1 14 13
f 1 15 14
f 1 16 15
f 1 17 16
f 1 2 17
f 2 3 19
f 2 19 18
f 3 4 20
f 3 20 19
f 4 5 21
f 4 21 20
f 5 6 22
f 5 22 21
f 6 7 23
f 6 23 22
f 7 8 24
f 7 24 23
f 8 9 25
f 8 25 24
f 9 10 26
f 9 26 25
f 10 11 27
f 10 27 26
f 11 12 28
f 11 28 27
f 12 13 29
f 12 29 28
f 13 14 30
f 13 30 29
f 14 15 31
f 14 31 30
f 15 16 32
f 15 32 31
f 16 17 33
f 16 33 32
f 17 2 18
f 17 18 33
f 18 19 35
f 18 35 34
f 19 20 36
f 19 36 35
f 20 21 37
f 20 37 36
f 21 22 38
f 21 38 37
f 22 23 39
f 22 39 38
f 23 24 40
f 23 40 39
f 24 25 41
f 24 41 40
f 25 26 42
f 25 42 41
f 26 27 43
f 26 43 42
f 27 28 44
f 27 44 43
f 28 29 45
f 28 45 44
f 29 30 46
f 29 46 45
f 30 31 47
f 30 47 46
f 31 32 48
f 31 48 47
f 32 33 49
f 32 49 48
f 33 18 34
f 33 34 49
f 34 35 51
f 34 51 50
f 35 36 52
f 35 52 51
f 36 37 53
f 36 53 52
f 37 38 54
f 37 54 53
f 38 39 55
f 38 55 54
f 39 40 56
f 39 56 55
f 40 41 57
f 40 57 56
f 41 42 58
f 41 58 57
f 42 43 59
f 42 59 58
f 43 44 60
f 43 60 59
f 44 45 61
f 44 61 60
f 45 46 62
f 45 62 61
f 46 47 63
f 46 63 62
f 47 48 64
f 47 64 63
f 48 49 65
f 48 65 64
f 49 34 50
f 49 50 65
f 50 51 66
f 51 52 66
f 52 53 66
f 53 54 66
f 54 55 66
f 55 56 66
f 56 57 66
f 57 58 66
f 58 59 66
f 59 60 66
f 60 61 66
f 61 62 66
f 62 63 66
f 63 64 66
f 64 65 66
f 65 50 66
f 67 69 68
f 67 70 69
f 67 71 70
f 67 72 71
f 67 73 72
f 67 74 73
f 67 75 74
f 67 76 75
f 67 77 76
f 67 78 77
f 67 79 78
f 67 68 79
f 68 69 81
f 68 81 80
f 69 70 82
f 69 82 81
f 70 71 83
f 70 83 82
f 71 72 84
f 71 84 83
f 72 73 85
f 72 85 84
f 73 74 86
f 73 86 85
f 74 75 87
f 74 87 86
f 75 76 88
f 75 88 87
f 76 77 89
f 76 89 88
f 77 78 90
f 77 90 89
f 78 79 91
f 78 91 90
f 79 68 80
f 79 80 91
f 80 81 93
f 80 93 92
f 81 82 94
f 81 94 93
f 82 83 95
f 82 95 94
f 83 84 96
f 83 96 95
f 84 85 97
f 84 97 96
f 85 86 98
f 85 98 97
f 86 87 99
f 86 99 98
f 87 88 100
f 87 100 99
f 88 89 101
f 88 101 100
f 89 90 102
f 89 102 101
f 90 91 103
f 90 103 102
f 91 80 92
f 91 92 103
f 92 93 104
f 93 94 104
f 94 95 104
f 95 96 104
f 96 97 104
f 97 98 104
f 98 99 104
f 99 100 104
f 100 101 104
f 101 102 104
f 102 103 104
f 103 92 104
f 105 108 107
f 105 107 106
f 109 110 111
f 109 111 112
f 105 106 110
f 105 110 109
f 106 107 111
f 106 111 110
f 107 108 112
f 107 112 111
f 108 105 109
f 108 109 112
f 113 116 115
f 113 115 114
f 117 118 119
f 117 119 120
f 113 114 118
f 113 118 117
f 114 115 119
f 114 119 118
f 115 116 120
f 115 120 119
f 116 113 117
f 116 117 120
f 121 123 122
f 121 124 123
f 121 125 124
f 121 126 125
f 121 127 126
f 121 128 127
f 121 129 128
f 121 130 129
f 121 131 130
f 121 132 131
f 121 133 132
f 121 122 133
f 122 123 135
f 122 135 134
f 123 124 136
f 123 136 135
f 124 125 137
f 124 137 136
f 125 126 138
f 125 138 137
f 126 127 139
f 126 139 138
f 127 128 140
f 127 140 139
f 128 129 141
f 128 141 140
f 129 130 142
f 129 142 141
f 130 131 143
f 130 143 142
f 131 132 144
f 131 144 143
f 132 133 145
f 132 145 144
f 133 122 134
f 133 134 145
f 134 135 147
f 134 147 146
f 135 136 148
f 135 148 147
f 136 137 149
f 136 149 148
f 137 138 150
f 137 150 149
f 138 139 151
f 138 151 150
f 139 140 152
f 139 152 151
f 140 141 153
f 140 153 152
f 141 142 154
f 141 154 153
f 142 143 155
f 142 155 154
f 143 144 156
f 143 156 155
f 144 145 157
f 144 157 156
f 145 134 146
f 145 146 157
f 146 147 159
f 146 159 158
f 147 148 160
f 147 160 159
f 148 149 161
f 148 161 160
f 149 150 162
f 149 162 161
f 150 151 163
f 150 163 162
f 151 152 164
f 151 164 163
f 152 153 165
f 152 165 164
f 153 154 166
f 153 166 165
f 154 155 167
f 154 167 166
f 155 156 168
f 155 168 167
f 156 157 169
f 156 169 168
f 157 146 158
f 157 158 169
f 158 159 170
f 159 160 170
f 160 161 170
f 161 162 170
f 162 163 170
f 163 164 170
f 164 165 170
f 165 166 170
f 166 167 170
f 167 168 170
f 168 169 170
f 169 158 170
f 171 173 172
f 171 174 173
f 171 175 174
f 171 176 175
f 171 177 176
f 171 178 177
f 171 179 178
f 171 172 179
f 172 173 181
f 172 181 180
f 173 174 182
f 173 182 181
f 174 175 183
f 174 183 182
f 175 176 184
f 175 184 183
f 176 177 185
f 176 185 184
f 177 178 186
f 177 186 185
f 178 179 187
f 178 187 186
f 179 172 180
f 179 180 187
f 180 181 121
f 181 182 121
f 182 183 121
f 183 184 121
f 184 185 121
f 185 186 121
f 186 187 121
f 187 180 121
f 188 190 189
f 188 191 190
f 188 192 191
f 188 193 192
f 188 194 193
f 188 195 194
f 188 196 195
f 188 197 196
f 188 198 197
f 188 199 198
f 188 200 199
f 188 189 200
f 189 190 202
f 189 202 201
f 190 191 203
f 190 203 202
f 191 192 204
f 191 204 203
f 192 193 205
f 192 205 204
f 193 194 206
f 193 206 205
f 194 195 207
f 194 207 206
f 195 196 208
f 195 208 207
f 196 197 209
f 196 209 208
f 197 198 210
f 197 210 209
f 198 199 211
f 198 211 210
f 199 200 212
f 199 212 211
f 200 189 201
f 200 201 212
f 201 202 214
f 201 214 213
f 202 203 215
f 202 215 214
f 203 204 216
f 203 216 215
f 204 205 217
f 204 217 216
f 205 206 218
f 205 218 217
f 206 207 219
f 206 219 218
f 207 208 220
f 207 220 219
f 208 209 221
f 208 221 220
f 209 210 222
f 209 222 221
f 210 211 223
f 210 223 222
f 211 212 224
f 211 224 223
f 212 201 213
f 212 213 224
f 213 214 226
f 213 226 225
f 214 215 227
f 214 227 226
f 215 216 228
f 215 228 227
f 216 217 229
f 216 229 228
f 217 218 230
f 217 230 229
f 218 219 231
f 218 231 230
f 219 220 232
f 219 232 231
f 220 221 233
f 220 233 232
f 221 222 234
f 221 234 233
f 222 223 235
f 222 235 234
f 223 224 236
f 223 236 235
f 224 213 225
f 224 225 236
f 225 226 237
f 226 227 237
f 227 228 237
f 228 229 237
f 229 230 237
f 230 231 237
f 231 232 237
f 232 233 237
f 233 234 237
f 234 235 237
f 235 236 237
f 236 225 237
f 238 240 239
f 238 241 240
f 238 242 241
f 238 243 242
f 238 244 243
f 238 245 244
f 238 246 245
f 238 239 246
f 239 240 248
f 239 248 247
f 240 241 249
f 240 249 248
f 241 242 250
f 241 250 249
f 242 243 251
f 242 251 250
f 243 244 252
f 243 252 251
f 244 245 253
f 244 253 252
f 245 246 254
f 245 254 253
f 246 239 247
f 246 247 254
f 247 248 188
f 248 249 188
f 249 250 188
f 250 251 188
f 251 252 188
f 252 253 188
f 253 254 188
f 254 247 188
f 403 405 404
f 403 406 405
f 403 407 406
f 403 408 407
f 403 409 408
f 403 410 409
f 403 411 410
f 403 404 411
f 404 405 413
f 404 413 412
f 405 406 414
f 405 414 413
f 406 407 415
f 406 415 414
f 407 408 416
f 407 416 415
f 408 409 417
f 408 417 416
f 409 410 418
f 409 418 417
f 410 411 419
f 410 419 418
f 411 404 412
f 411 412 419
f 412 413 420
f 413 414 420
f 414 415 420
f 415 416 420
f 416 417 420
f 417 418 420
f 418 419 420
f 419 412 420
