v -0.16000000 0.00000000 0.05000000
v 0.16000000 0.00000000 0.05000000
v 0.16000000 0.00000000 -0.05500000
v -0.16000000 0.00000000 -0.05500000
v -0.16000000 0.12500000 0.01500000
v 0.16000000 0.12500000 0.01500000
v 0.16000000 0.12500000 -0.03500000
v -0.16000000 0.12500000 -0.03500000
v -0.07700000 0.09875000 0.02250000
v -0.04900000 0.09875000 0.02250000
v -0.04900000 0.10525000 0.02068000
v -0.07700000 0.10525000 0.02068000
v -0.07700000 0.09875000 0.02335000
v -0.04900000 0.09875000 0.02335000
v -0.04900000 0.10525000 0.02153000
v -0.07700000 0.10525000 0.02153000
v -0.07700000 0.05975000 0.03342000
v -0.04900000 0.05975000 0.03342000
v -0.04900000 0.06625000 0.03160000
v -0.07700000 0.06625000 0.03160000
v -0.07700000 0.05975000 0.03427000
v -0.04900000 0.05975000 0.03427000
v -0.04900000 0.06625000 0.03245000
v -0.07700000 0.06625000 0.03245000
v -0.07700000 0.02075000 0.04434000
v -0.04900000 0.02075000 0.04434000
v -0.04900000 0.02725000 0.04252000
v -0.07700000 0.02725000 0.04252000
v -0.07700000 0.02075000 0.04519000
v -0.04900000 0.02075000 0.04519000
v -0.04900000 0.02725000 0.04337000
v -0.07700000 0.02725000 0.04337000
v -0.07675000 0.06800000 0.03111000
v -0.07675000 0.09700000 0.02299000
v -0.08325000 0.09700000 0.02299000
v -0.08325000 0.06800000 0.03111000
v -0.07675000 0.06800000 0.03196000
v -0.07675000 0.09700000 0.02384000
v -0.08325000 0.09700000 0.02384000
v -0.08325000 0.06800000 0.03196000
v -0.04275000 0.06800000 0.03111000
v -0.04275000 0.09700000 0.02299000
v -0.04925000 0.09700000 0.02299000
v -0.04925000 0.06800000 0.03111000
v -0.04275000 0.06800000 0.03196000
v -0.04275000 0.09700000 0.02384000
v -0.04925000 0.09700000 0.02384000
v -0.04925000 0.06800000 0.03196000
v -0.07675000 0.02900000 0.04203000
v -0.07675000 0.05800000 0.03391000
v -0.08325000 0.05800000 0.03391000
v -0.08325000 0.02900000 0.04203000
v -0.07675000 0.02900000 0.04288000
v -0.07675000 0.05800000 0.03476000
v -0.08325000 0.05800000 0.03476000
v -0.08325000 0.02900000 0.04288000
v -0.04275000 0.02900000 0.04203000
v -0.04275000 0.05800000 0.03391000
v -0.04925000 0.05800000 0.03391000
v -0.04925000 0.02900000 0.04203000
v -0.04275000 0.02900000 0.04288000
v -0.04275000 0.05800000 0.03476000
v -0.04925000 0.05800000 0.03476000
v -0.04925000 0.02900000 0.04288000
v -0.03920000 0.02280000 0.04376600
v -0.03480000 0.02280000 0.04376600
v -0.03480000 0.02720000 0.04253400
v -0.03920000 0.02720000 0.04253400
v -0.03920000 0.02280000 0.04461600
v -0.03480000 0.02280000 0.04461600
v -0.03480000 0.02720000 0.04338400
v -0.03920000 0.02720000 0.04338400
v -0.02600000 0.09875000 0.02250000
v 0.00200000 0.09875000 0.02250000
v 0.00200000 0.10525000 0.02068000
v -0.02600000 0.10525000 0.02068000
v -0.02600000 0.09875000 0.02335000
v 0.00200000 0.09875000 0.02335000
v 0.00200000 0.10525000 0.02153000
v -0.02600000 0.10525000 0.02153000
v -0.02600000 0.05975000 0.03342000
v 0.00200000 0.05975000 0.03342000
v 0.00200000 0.06625000 0.03160000
v -0.02600000 0.06625000 0.03160000
v -0.02600000 0.05975000 0.03427000
v 0.00200000 0.05975000 0.03427000
v 0.00200000 0.06625000 0.03245000
v -0.02600000 0.06625000 0.03245000
v -0.02600000 0.02075000 0.04434000
v 0.00200000 0.02075000 0.04434000
v 0.00200000 0.02725000 0.04252000
v -0.02600000 0.02725000 0.04252000
v -0.02600000 0.02075000 0.04519000
v 0.00200000 0.02075000 0.04519000
v 0.00200000 0.02725000 0.04337000
v -0.02600000 0.02725000 0.04337000
v -0.02575000 0.06800000 0.03111000
v -0.02575000 0.09700000 0.02299000
v -0.03225000 0.09700000 0.02299000
v -0.03225000 0.06800000 0.03111000
v -0.02575000 0.06800000 0.03196000
v -0.02575000 0.09700000 0.02384000
v -0.03225000 0.09700000 0.02384000
v -0.03225000 0.06800000 0.03196000
v 0.00825000 0.06800000 0.03111000
v 0.00825000 0.09700000 0.02299000
v 0.00175000 0.09700000 0.02299000
v 0.00175000 0.06800000 0.03111000
v 0.00825000 0.06800000 0.03196000
v 0.00825000 0.09700000 0.02384000
v 0.00175000 0.09700000 0.02384000
v 0.00175000 0.06800000 0.03196000
v -0.02575000 0.02900000 0.04203000
v -0.02575000 0.05800000 0.03391000
v -0.03225000 0.05800000 0.03391000
v -0.03225000 0.02900000 0.04203000
v -0.02575000 0.02900000 0.04288000
v -0.02575000 0.05800000 0.03476000
v -0.03225000 0.05800000 0.03476000
v -0.03225000 0.02900000 0.04288000
v 0.00825000 0.02900000 0.04203000
v 0.00825000 0.05800000 0.03391000
v 0.00175000 0.05800000 0.03391000
v 0.00175000 0.02900000 0.04203000
v 0.00825000 0.02900000 0.04288000
v 0.00825000 0.05800000 0.03476000
v 0.00175000 0.05800000 0.03476000
v 0.00175000 0.02900000 0.04288000
v 0.01180000 0.02280000 0.04376600
v 0.01620000 0.02280000 0.04376600
v 0.01620000 0.02720000 0.04253400
v 0.01180000 0.02720000 0.04253400
v 0.01180000 0.02280000 0.04461600
v 0.01620000 0.02280000 0.04461600
v 0.01620000 0.02720000 0.04338400
v 0.01180000 0.02720000 0.04338400
v 0.04700000 0.09875000 0.02250000
v 0.07500000 0.09875000 0.02250000
v 0.07500000 0.10525000 0.02068000
v 0.04700000 0.10525000 0.02068000
v 0.04700000 0.09875000 0.02335000
v 0.07500000 0.09875000 0.02335000
v 0.07500000 0.10525000 0.02153000
v 0.04700000 0.10525000 0.02153000
v 0.04700000 0.05975000 0.03342000
v 0.07500000 0.05975000 0.03342000
v 0.07500000 0.06625000 0.03160000
v 0.04700000 0.06625000 0.03160000
v 0.04700000 0.05975000 0.03427000
v 0.07500000 0.05975000 0.03427000
v 0.07500000 0.06625000 0.03245000
v 0.04700000 0.06625000 0.03245000
v 0.04700000 0.02075000 0.04434000
v 0.07500000 0.02075000 0.04434000
v 0.07500000 0.02725000 0.04252000
v 0.04700000 0.02725000 0.04252000
v 0.04700000 0.02075000 0.04519000
v 0.07500000 0.02075000 0.04519000
v 0.07500000 0.02725000 0.04337000
v 0.04700000 0.02725000 0.04337000
v 0.04725000 0.06800000 0.03111000
v 0.04725000 0.09700000 0.02299000
v 0.04075000 0.09700000 0.02299000
v 0.04075000 0.06800000 0.03111000
v 0.04725000 0.06800000 0.03196000
v 0.04725000 0.09700000 0.02384000
v 0.04075000 0.09700000 0.02384000
v 0.04075000 0.06800000 0.03196000
v 0.08125000 0.06800000 0.03111000
v 0.08125000 0.09700000 0.02299000
v 0.07475000 0.09700000 0.02299000
v 0.07475000 0.06800000 0.03111000
v 0.08125000 0.06800000 0.03196000
v 0.08125000 0.09700000 0.02384000
v 0.07475000 0.09700000 0.02384000
v 0.07475000 0.06800000 0.03196000
v 0.04725000 0.02900000 0.04203000
v 0.04725000 0.05800000 0.03391000
v 0.04075000 0.05800000 0.03391000
v 0.04075000 0.02900000 0.04203000
v 0.04725000 0.02900000 0.04288000
v 0.04725000 0.05800000 0.03476000
v 0.04075000 0.05800000 0.03476000
v 0.04075000 0.02900000 0.04288000
v 0.08125000 0.02900000 0.04203000
v 0.08125000 0.05800000 0.03391000
v 0.07475000 0.05800000 0.03391000
v 0.07475000 0.02900000 0.04203000
v 0.08125000 0.02900000 0.04288000
v 0.08125000 0.05800000 0.03476000
v 0.07475000 0.05800000 0.03476000
v 0.07475000 0.02900000 0.04288000
v 0.08480000 0.02280000 0.04376600
v 0.08920000 0.02280000 0.04376600
v 0.08920000 0.02720000 0.04253400
v 0.08480000 0.02720000 0.04253400
v 0.08480000 0.02280000 0.04461600
v 0.08920000 0.02280000 0.04461600
v 0.08920000 0.02720000 0.04338400
v 0.08480000 0.02720000 0.04338400
v 0.09800000 0.09875000 0.02250000
v 0.12600000 0.09875000 0.02250000
v 0.12600000 0.10525000 0.02068000
v 0.09800000 0.10525000 0.02068000
v 0.09800000 0.09875000 0.02335000
v 0.12600000 0.09875000 0.02335000
v 0.12600000 0.10525000 0.02153000
v 0.09800000 0.10525000 0.02153000
v 0.09800000 0.05975000 0.03342000
v 0.12600000 0.05975000 0.03342000
v 0.12600000 0.06625000 0.03160000
v 0.09800000 0.06625000 0.03160000
v 0.09800000 0.05975000 0.03427000
v 0.12600000 0.05975000 0.03427000
v 0.12600000 0.06625000 0.03245000
v 0.09800000 0.06625000 0.03245000
v 0.09800000 0.02075000 0.04434000
v 0.12600000 0.02075000 0.04434000
v 0.12600000 0.02725000 0.04252000
v 0.09800000 0.02725000 0.04252000
v 0.09800000 0.02075000 0.04519000
v 0.12600000 0.02075000 0.04519000
v 0.12600000 0.02725000 0.04337000
v 0.09800000 0.02725000 0.04337000
v 0.09825000 0.06800000 0.03111000
v 0.09825000 0.09700000 0.02299000
v 0.09175000 0.09700000 0.02299000
v 0.09175000 0.06800000 0.03111000
v 0.09825000 0.06800000 0.03196000
v 0.09825000 0.09700000 0.02384000
v 0.09175000 0.09700000 0.02384000
v 0.09175000 0.06800000 0.03196000
v 0.13225000 0.06800000 0.03111000
v 0.13225000 0.09700000 0.02299000
v 0.12575000 0.09700000 0.02299000
v 0.12575000 0.06800000 0.03111000
v 0.13225000 0.06800000 0.03196000
v 0.13225000 0.09700000 0.02384000
v 0.12575000 0.09700000 0.02384000
v 0.12575000 0.06800000 0.03196000
v 0.09825000 0.02900000 0.04203000
v 0.09825000 0.05800000 0.03391000
v 0.09175000 0.05800000 0.03391000
v 0.09175000 0.02900000 0.04203000
v 0.09825000 0.02900000 0.04288000
v 0.09825000 0.05800000 0.03476000
v 0.09175000 0.05800000 0.03476000
v 0.09175000 0.02900000 0.04288000
v 0.13225000 0.02900000 0.04203000
v 0.13225000 0.05800000 0.03391000
v 0.12575000 0.05800000 0.03391000
v 0.12575000 0.02900000 0.04203000
v 0.13225000 0.02900000 0.04288000
v 0.13225000 0.05800000 0.03476000
v 0.12575000 0.05800000 0.03476000
v 0.12575000 0.02900000 0.04288000
v 0.13580000 0.02280000 0.04376600
v 0.14020000 0.02280000 0.04376600
v 0.14020000 0.02720000 0.04253400
v 0.13580000 0.02720000 0.04253400
v 0.13580000 0.02280000 0.04461600
v 0.14020000 0.02280000 0.04461600
v 0.14020000 0.02720000 0.04338400
v 0.13580000 0.02720000 0.04338400
v 0.02470000 0.04370000 0.03791400
v 0.03130000 0.04370000 0.03791400
v 0.03130000 0.05030000 0.03606600
v 0.02470000 0.05030000 0.03606600
v 0.02470000 0.04370000 0.03876400
v 0.03130000 0.04370000 0.03876400
v 0.03130000 0.05030000 0.03691600
v 0.02470000 0.05030000 0.03691600
v 0.02470000 0.07270000 0.02979400
v 0.03130000 0.07270000 0.02979400
v 0.03130000 0.07930000 0.02794600
v 0.02470000 0.07930000 0.02794600
v 0.02470000 0.07270000 0.03064400
v 0.03130000 0.07270000 0.03064400
v 0.03130000 0.07930000 0.02879600
v 0.02470000 0.07930000 0.02879600
v -0.12700000 0.10950000 0.01949000
v -0.14100000 0.10950000 0.01949000
v -0.14100000 0.10650000 0.02033000
v -0.12700000 0.10650000 0.02033000
v -0.12700000 0.10950000 0.02034000
v -0.14100000 0.10950000 0.02034000
v -0.14100000 0.10650000 0.02118000
v -0.12700000 0.10650000 0.02118000
v -0.14250000 0.10800000 0.01991000
v -0.14250000 0.09100000 0.02467000
v -0.13950000 0.09100000 0.02467000
v -0.13950000 0.10800000 0.01991000
v -0.14250000 0.10800000 0.02076000
v -0.14250000 0.09100000 0.02552000
v -0.13950000 0.09100000 0.02552000
v -0.13950000 0.10800000 0.02076000
v -0.14100000 0.08950000 0.02509000
v -0.12700000 0.08950000 0.02509000
v -0.12700000 0.09250000 0.02425000
v -0.14100000 0.09250000 0.02425000
v -0.14100000 0.08950000 0.02594000
v -0.12700000 0.08950000 0.02594000
v -0.12700000 0.09250000 0.02510000
v -0.14100000 0.09250000 0.02510000
v -0.10900000 0.10950000 0.01949000
v -0.12300000 0.10950000 0.01949000
v -0.12300000 0.10650000 0.02033000
v -0.10900000 0.10650000 0.02033000
v -0.10900000 0.10950000 0.02034000
v -0.12300000 0.10950000 0.02034000
v -0.12300000 0.10650000 0.02118000
v -0.10900000 0.10650000 0.02118000
v -0.12450000 0.10800000 0.01991000
v -0.12450000 0.09950000 0.02229000
v -0.12150000 0.09950000 0.02229000
v -0.12150000 0.10800000 0.01991000
v -0.12450000 0.10800000 0.02076000
v -0.12450000 0.09950000 0.02314000
v -0.12150000 0.09950000 0.02314000
v -0.12150000 0.10800000 0.02076000
v -0.12300000 0.09800000 0.02271000
v -0.10900000 0.09800000 0.02271000
v -0.10900000 0.10100000 0.02187000
v -0.12300000 0.10100000 0.02187000
v -0.12300000 0.09800000 0.02356000
v -0.10900000 0.09800000 0.02356000
v -0.10900000 0.10100000 0.02272000
v -0.12300000 0.10100000 0.02272000
v -0.11050000 0.09950000 0.02229000
v -0.11050000 0.09100000 0.02467000
v -0.10750000 0.09100000 0.02467000
v -0.10750000 0.09950000 0.02229000
v -0.11050000 0.09950000 0.02314000
v -0.11050000 0.09100000 0.02552000
v -0.10750000 0.09100000 0.02552000
v -0.10750000 0.09950000 0.02314000
v -0.10900000 0.09250000 0.02425000
v -0.12300000 0.09250000 0.02425000
v -0.12300000 0.08950000 0.02509000
v -0.10900000 0.08950000 0.02509000
v -0.10900000 0.09250000 0.02510000
v -0.12300000 0.09250000 0.02510000
v -0.12300000 0.08950000 0.02594000
v -0.10900000 0.08950000 0.02594000
v -0.13990000 0.05900000 0.03363000
v -0.13990000 0.07175000 0.03006000
v -0.14210000 0.07175000 0.03006000
v -0.14210000 0.05900000 0.03363000
v -0.13990000 0.05900000 0.03448000
v -0.13990000 0.07175000 0.03091000
v -0.14210000 0.07175000 0.03091000
v -0.14210000 0.05900000 0.03448000
v -0.14042912 0.07080973 0.03032327
v -0.13342912 0.07505973 0.02913327
v -0.13457088 0.07694027 0.02860673
v -0.14157088 0.07269027 0.02979673
v -0.14042912 0.07080973 0.03117327
v -0.13342912 0.07505973 0.02998327
v -0.13457088 0.07694027 0.02945673
v -0.14157088 0.07269027 0.03064673
v -0.13457088 0.07505973 0.02913327
v -0.12757088 0.07080973 0.03032327
v -0.12642912 0.07269027 0.02979673
v -0.13342912 0.07694027 0.02860673
v -0.13457088 0.07505973 0.02998327
v -0.12757088 0.07080973 0.03117327
v -0.12642912 0.07269027 0.03064673
v -0.13342912 0.07694027 0.02945673
v -0.12810000 0.07175000 0.03006000
v -0.12810000 0.05900000 0.03363000
v -0.12590000 0.05900000 0.03363000
v -0.12590000 0.07175000 0.03006000
v -0.12810000 0.07175000 0.03091000
v -0.12810000 0.05900000 0.03448000
v -0.12590000 0.05900000 0.03448000
v -0.12590000 0.07175000 0.03091000
v -0.14100000 0.06555000 0.03179600
v -0.12700000 0.06555000 0.03179600
v -0.12700000 0.06775000 0.03118000
v -0.14100000 0.06775000 0.03118000
v -0.14100000 0.06555000 0.03264600
v -0.12700000 0.06555000 0.03264600
v -0.12700000 0.06775000 0.03203000
v -0.14100000 0.06775000 0.03203000
v -0.12190000 0.05900000 0.03363000
v -0.12190000 0.07600000 0.02887000
v -0.12410000 0.07600000 0.02887000
v -0.12410000 0.05900000 0.03363000
v -0.12190000 0.05900000 0.03448000
v -0.12190000 0.07600000 0.02972000
v -0.12410000 0.07600000 0.02972000
v -0.12410000 0.05900000 0.03448000
v -0.12390696 0.07537757 0.02904428
v -0.11690696 0.06517757 0.03190028
v -0.11509304 0.06642243 0.03155172
v -0.12209304 0.07662243 0.02869572
v -0.12390696 0.07537757 0.02989428
v -0.11690696 0.06517757 0.03275028
v -0.11509304 0.06642243 0.03240172
v -0.12209304 0.07662243 0.02954572
v -0.11509304 0.06517757 0.03190028
v -0.10809304 0.07537757 0.02904428
v -0.10990696 0.07662243 0.02869572
v -0.11690696 0.06642243 0.03155172
v -0.11509304 0.06517757 0.03275028
v -0.10809304 0.07537757 0.02989428
v -0.10990696 0.07662243 0.02954572
v -0.11690696 0.06642243 0.03240172
v -0.11010000 0.07600000 0.02887000
v -0.11010000 0.05900000 0.03363000
v -0.10790000 0.05900000 0.03363000
v -0.10790000 0.07600000 0.02887000
v -0.11010000 0.07600000 0.02972000
v -0.11010000 0.05900000 0.03448000
v -0.10790000 0.05900000 0.03448000
v -0.10790000 0.07600000 0.02972000
v -0.13990000 0.03000000 0.04175000
v -0.13990000 0.04700000 0.03699000
v -0.14210000 0.04700000 0.03699000
v -0.14210000 0.03000000 0.04175000
v -0.13990000 0.03000000 0.04260000
v -0.13990000 0.04700000 0.03784000
v -0.14210000 0.04700000 0.03784000
v -0.14210000 0.03000000 0.04260000
v -0.14100000 0.04590000 0.03729800
v -0.12700000 0.04590000 0.03729800
v -0.12700000 0.04810000 0.03668200
v -0.14100000 0.04810000 0.03668200
v -0.14100000 0.04590000 0.03814800
v -0.12700000 0.04590000 0.03814800
v -0.12700000 0.04810000 0.03753200
v -0.14100000 0.04810000 0.03753200
v -0.12810000 0.04700000 0.03699000
v -0.12810000 0.03850000 0.03937000
v -0.12590000 0.03850000 0.03937000
v -0.12590000 0.04700000 0.03699000
v -0.12810000 0.04700000 0.03784000
v -0.12810000 0.03850000 0.04022000
v -0.12590000 0.03850000 0.04022000
v -0.12590000 0.04700000 0.03784000
v -0.12700000 0.03960000 0.03906200
v -0.14100000 0.03960000 0.03906200
v -0.14100000 0.03740000 0.03967800
v -0.12700000 0.03740000 0.03967800
v -0.12700000 0.03960000 0.03991200
v -0.14100000 0.03960000 0.03991200
v -0.14100000 0.03740000 0.04052800
v -0.12700000 0.03740000 0.04052800
v -0.12190000 0.03000000 0.04175000
v -0.12190000 0.04700000 0.03699000
v -0.12410000 0.04700000 0.03699000
v -0.12410000 0.03000000 0.04175000
v -0.12190000 0.03000000 0.04260000
v -0.12190000 0.04700000 0.03784000
v -0.12410000 0.04700000 0.03784000
v -0.12410000 0.03000000 0.04260000
v -0.12390696 0.04637757 0.03716428
v -0.11690696 0.03617757 0.04002028
v -0.11509304 0.03742243 0.03967172
v -0.12209304 0.04762243 0.03681572
v -0.12390696 0.04637757 0.03801428
v -0.11690696 0.03617757 0.04087028
v -0.11509304 0.03742243 0.04052172
v -0.12209304 0.04762243 0.03766572
v -0.11509304 0.03617757 0.04002028
v -0.10809304 0.04637757 0.03716428
v -0.10990696 0.04762243 0.03681572
v -0.11690696 0.03742243 0.03967172
v -0.11509304 0.03617757 0.04087028
v -0.10809304 0.04637757 0.03801428
v -0.10990696 0.04762243 0.03766572
v -0.11690696 0.03742243 0.04052172
v -0.11010000 0.04700000 0.03699000
v -0.11010000 0.03000000 0.04175000
v -0.10790000 0.03000000 0.04175000
v -0.10790000 0.04700000 0.03699000
v -0.11010000 0.04700000 0.03784000
v -0.11010000 0.03000000 0.04260000
v -0.10790000 0.03000000 0.04260000
v -0.10790000 0.04700000 0.03784000
s off
o Clock_Main
f 1 4 3
f 1 3 2
f 5 6 7
f 5 7 8
f 1 2 6
f 1 6 5
f 2 3 7
f 2 7 6
f 3 4 8
f 3 8 7
f 4 1 5
f 4 5 8
o AM_PM_Off
f 36 35 34
f 36 34 33
f 37 38 39
f 37 39 40
f 33 34 38
f 33 38 37
f 34 35 39
f 34 39 38
f 35 36 40
f 35 40 39
f 36 33 37
f 36 37 40
f 52 51 50
f 52 50 49
f 53 54 55
f 53 55 56
f 49 50 54
f 49 54 53
f 50 51 55
f 50 55 54
f 51 52 56
f 51 56 55
f 52 49 53
f 52 53 56
f 68 67 66
f 68 66 65
f 69 70 71
f 69 71 72
f 65 66 70
f 65 70 69
f 66 67 71
f 66 71 70
f 67 68 72
f 67 72 71
f 68 65 69
f 68 69 72
f 100 99 98
f 100 98 97
f 101 102 103
f 101 103 104
f 97 98 102
f 97 102 101
f 98 99 103
f 98 103 102
f 99 100 104
f 99 104 103
f 100 97 101
f 100 101 104
f 124 123 122
f 124 122 121
f 125 126 127
f 125 127 128
f 121 122 126
f 121 126 125
f 122 123 127
f 122 127 126
f 123 124 128
f 123 128 127
f 124 121 125
f 124 125 128
f 132 131 130
f 132 130 129
f 133 134 135
f 133 135 136
f 129 130 134
f 129 134 133
f 130 131 135
f 130 135 134
f 131 132 136
f 131 136 135
f 132 129 133
f 132 133 136
f 140 139 138
f 140 138 137
f 141 142 143
f 141 143 144
f 137 138 142
f 137 142 141
f 138 139 143
f 138 143 142
f 139 140 144
f 139 144 143
f 140 137 141
f 140 141 144
f 148 147 146
f 148 146 145
f 149 150 151
f 149 151 152
f 145 146 150
f 145 150 149
f 146 147 151
f 146 151 150
f 147 148 152
f 147 152 151
f 148 145 149
f 148 149 152
f 156 155 154
f 156 154 153
f 157 158 159
f 157 159 160
f 153 154 158
f 153 158 157
f 154 155 159
f 154 159 158
f 155 156 160
f 155 160 159
f 156 153 157
f 156 157 160
f 164 163 162
f 164 162 161
f 165 166 167
f 165 167 168
f 161 162 166
f 161 166 165
f 162 163 167
f 162 167 166
f 163 164 168
f 163 168 167
f 164 161 165
f 164 165 168
f 180 179 178
f 180 178 177
f 181 182 183
f 181 183 184
f 177 178 182
f 177 182 181
f 178 179 183
f 178 183 182
f 179 180 184
f 179 184 183
f 180 177 181
f 180 181 184
f 196 195 194
f 196 194 193
f 197 198 199
f 197 199 200
f 193 194 198
f 193 198 197
f 194 195 199
f 194 199 198
f 195 196 200
f 195 200 199
f 196 193 197
f 196 197 200
f 212 211 210
f 212 210 209
f 213 214 215
f 213 215 216
f 209 210 214
f 209 214 213
f 210 211 215
f 210 215 214
f 211 212 216
f 211 216 215
f 212 209 213
f 212 213 216
f 260 259 258
f 260 258 257
f 261 262 263
f 261 263 264
f 257 258 262
f 257 262 261
f 258 259 263
f 258 263 262
f 259 260 264
f 259 264 263
f 260 257 261
f 260 261 264
f 348 347 346
f 348 346 345
f 349 350 351
f 349 351 352
f 345 346 350
f 345 350 349
f 346 347 351
f 346 351 350
f 347 348 352
f 347 352 351
f 348 345 349
f 348 349 352
f 356 355 354
f 356 354 353
f 357 358 359
f 357 359 360
f 353 354 358
f 353 358 357
f 354 355 359
f 354 359 358
f 355 356 360
f 355 360 359
f 356 353 357
f 356 357 360
f 364 363 362
f 364 362 361
f 365 366 367
f 365 367 368
f 361 362 366
f 361 366 365
f 362 363 367
f 362 367 366
f 363 364 368
f 363 368 367
f 364 361 365
f 364 365 368
f 372 371 370
f 372 370 369
f 373 374 375
f 373 375 376
f 369 370 374
f 369 374 373
f 370 371 375
f 370 375 374
f 371 372 376
f 371 376 375
f 372 369 373
f 372 373 376
f 380 379 378
f 380 378 377
f 381 382 383
f 381 383 384
f 377 378 382
f 377 382 381
f 378 379 383
f 378 383 382
f 379 380 384
f 379 384 383
f 380 377 381
f 380 381 384
f 388 387 386
f 388 386 385
f 389 390 391
f 389 391 392
f 385 386 390
f 385 390 389
f 386 387 391
f 386 391 390
f 387 388 392
f 387 392 391
f 388 385 389
f 388 389 392
f 396 395 394
f 396 394 393
f 397 398 399
f 397 399 400
f 393 394 398
f 393 398 397
f 394 395 399
f 394 399 398
f 395 396 400
f 395 400 399
f 396 393 397
f 396 397 400
f 404 403 402
f 404 402 401
f 405 406 407
f 405 407 408
f 401 402 406
f 401 406 405
f 402 403 407
f 402 407 406
f 403 404 408
f 403 408 407
f 404 401 405
f 404 405 408
f 412 411 410
f 412 410 409
f 413 414 415
f 413 415 416
f 409 410 414
f 409 414 413
f 410 411 415
f 410 415 414
f 411 412 416
f 411 416 415
f 412 409 413
f 412 413 416
f 420 419 418
f 420 418 417
f 421 422 423
f 421 423 424
f 417 418 422
f 417 422 421
f 418 419 423
f 418 423 422
f 419 420 424
f 419 424 423
f 420 417 421
f 420 421 424
f 428 427 426
f 428 426 425
f 429 430 431
f 429 431 432
f 425 426 430
f 425 430 429
f 426 427 431
f 426 431 430
f 427 428 432
f 427 432 431
f 428 425 429
f 428 429 432
f 436 435 434
f 436 434 433
f 437 438 439
f 437 439 440
f 433 434 438
f 433 438 437
f 434 435 439
f 434 439 438
f 435 436 440
f 435 440 439
f 436 433 437
f 436 437 440
f 444 443 442
f 444 442 441
f 445 446 447
f 445 447 448
f 441 442 446
f 441 446 445
f 442 443 447
f 442 447 446
f 443 444 448
f 443 448 447
f 444 441 445
f 444 445 448
f 452 451 450
f 452 450 449
f 453 454 455
f 453 455 456
f 449 450 454
f 449 454 453
f 450 451 455
f 450 455 454
f 451 452 456
f 451 456 455
f 452 449 453
f 452 453 456
f 460 459 458
f 460 458 457
f 461 462 463
f 461 463 464
f 457 458 462
f 457 462 461
f 458 459 463
f 458 463 462
f 459 460 464
f 459 464 463
f 460 457 461
f 460 461 464
f 468 467 466
f 468 466 465
f 469 470 471
f 469 471 472
f 465 466 470
f 465 470 469
f 466 467 471
f 466 471 470
f 467 468 472
f 467 472 471
f 468 465 469
f 468 469 472
f 476 475 474
f 476 474 473
f 477 478 479
f 477 479 480
f 473 474 478
f 473 478 477
f 474 475 479
f 474 479 478
f 475 476 480
f 475 480 479
f 476 473 477
f 476 477 480
o CS_32_10
f 12 11 10
f 12 10 9
f 13 14 15
f 13 15 16
f 9 10 14
f 9 14 13
f 10 11 15
f 10 15 14
f 11 12 16
f 11 16 15
f 12 9 13
f 12 13 16
f 20 19 18
f 20 18 17
f 21 22 23
f 21 23 24
f 17 18 22
f 17 22 21
f 18 19 23
f 18 23 22
f 19 20 24
f 19 24 23
f 20 17 21
f 20 21 24
f 28 27 26
f 28 26 25
f 29 30 31
f 29 31 32
f 25 26 30
f 25 30 29
f 26 27 31
f 26 31 30
f 27 28 32
f 27 32 31
f 28 25 29
f 28 29 32
f 44 43 42
f 44 42 41
f 45 46 47
f 45 47 48
f 41 42 46
f 41 46 45
f 42 43 47
f 42 47 46
f 43 44 48
f 43 48 47
f 44 41 45
f 44 45 48
f 60 59 58
f 60 58 57
f 61 62 63
f 61 63 64
f 57 58 62
f 57 62 61
f 58 59 63
f 58 63 62
f 59 60 64
f 59 64 63
f 60 57 61
f 60 61 64
f 76 75 74
f 76 74 73
f 77 78 79
f 77 79 80
f 73 74 78
f 73 78 77
f 74 75 79
f 74 79 78
f 75 76 80
f 75 80 79
f 76 73 77
f 76 77 80
f 84 83 82
f 84 82 81
f 85 86 87
f 85 87 88
f 81 82 86
f 81 86 85
f 82 83 87
f 82 87 86
f 83 84 88
f 83 88 87
f 84 81 85
f 84 85 88
f 92 91 90
f 92 90 89
f 93 94 95
f 93 95 96
f 89 90 94
f 89 94 93
f 90 91 95
f 90 95 94
f 91 92 96
f 91 96 95
f 92 89 93
f 92 93 96
f 108 107 106
f 108 106 105
f 109 110 111
f 109 111 112
f 105 106 110
f 105 110 109
f 106 107 111
f 106 111 110
f 107 108 112
f 107 112 111
f 108 105 109
f 108 109 112
f 116 115 114
f 116 114 113
f 117 118 119
f 117 119 120
f 113 114 118
f 113 118 117
f 114 115 119
f 114 119 118
f 115 116 120
f 115 120 119
f 116 113 117
f 116 117 120
f 172 171 170
f 172 170 169
f 173 174 175
f 173 175 176
f 169 170 174
f 169 174 173
f 170 171 175
f 170 175 174
f 171 172 176
f 171 176 175
f 172 169 173
f 172 173 176
f 188 187 186
f 188 186 185
f 189 190 191
f 189 191 192
f 185 186 190
f 185 190 189
f 186 187 191
f 186 191 190
f 187 188 192
f 187 192 191
f 188 185 189
f 188 189 192
f 204 203 202
f 204 202 201
f 205 206 207
f 205 207 208
f 201 202 206
f 201 206 205
f 202 203 207
f 202 207 206
f 203 204 208
f 203 208 207
f 204 201 205
f 204 205 208
f 220 219 218
f 220 218 217
f 221 222 223
f 221 223 224
f 217 218 222
f 217 222 221
f 218 219 223
f 218 223 222
f 219 220 224
f 219 224 223
f 220 217 221
f 220 221 224
f 228 227 226
f 228 226 225
f 229 230 231
f 229 231 232
f 225 226 230
f 225 230 229
f 226 227 231
f 226 231 230
f 227 228 232
f 227 232 231
f 228 225 229
f 228 229 232
f 236 235 234
f 236 234 233
f 237 238 239
f 237 239 240
f 233 234 238
f 233 238 237
f 234 235 239
f 234 239 238
f 235 236 240
f 235 240 239
f 236 233 237
f 236 237 240
f 244 243 242
f 244 242 241
f 245 246 247
f 245 247 248
f 241 242 246
f 241 246 245
f 242 243 247
f 242 247 246
f 243 244 248
f 243 248 247
f 244 241 245
f 244 245 248
f 252 251 250
f 252 250 249
f 253 254 255
f 253 255 256
f 249 250 254
f 249 254 253
f 250 251 255
f 250 255 254
f 251 252 256
f 251 256 255
f 252 249 253
f 252 253 256
f 268 267 266
f 268 266 265
f 269 270 271
f 269 271 272
f 265 266 270
f 265 270 269
f 266 267 271
f 266 271 270
f 267 268 272
f 267 272 271
f 268 265 269
f 268 269 272
f 276 275 274
f 276 274 273
f 277 278 279
f 277 279 280
f 273 274 278
f 273 278 277
f 274 275 279
f 274 279 278
f 275 276 280
f 275 280 279
f 276 273 277
f 276 277 280
f 284 283 282
f 284 282 281
f 285 286 287
f 285 287 288
f 281 282 286
f 281 286 285
f 282 283 287
f 282 287 286
f 283 284 288
f 283 288 287
f 284 281 285
f 284 285 288
f 292 291 290
f 292 290 289
f 293 294 295
f 293 295 296
f 289 290 294
f 289 294 293
f 290 291 295
f 290 295 294
f 291 292 296
f 291 296 295
f 292 289 293
f 292 293 296
f 300 299 298
f 300 298 297
f 301 302 303
f 301 303 304
f 297 298 302
f 297 302 301
f 298 299 303
f 298 303 302
f 299 300 304
f 299 304 303
f 300 297 301
f 300 301 304
f 308 307 306
f 308 306 305
f 309 310 311
f 309 311 312
f 305 306 310
f 305 310 309
f 306 307 311
f 306 311 310
f 307 308 312
f 307 312 311
f 308 305 309
f 308 309 312
f 316 315 314
f 316 314 313
f 317 318 319
f 317 319 320
f 313 314 318
f 313 318 317
f 314 315 319
f 314 319 318
f 315 316 320
f 315 320 319
f 316 313 317
f 316 317 320
f 324 323 322
f 324 322 321
f 325 326 327
f 325 327 328
f 321 322 326
f 321 326 325
f 322 323 327
f 322 327 326
f 323 324 328
f 323 328 327
f 324 321 325
f 324 325 328
f 332 331 330
f 332 330 329
f 333 334 335
f 333 335 336
f 329 330 334
f 329 334 333
f 330 331 335
f 330 335 334
f 331 332 336
f 331 336 335
f 332 329 333
f 332 333 336
f 340 339 338
f 340 338 337
f 341 342 343
f 341 343 344
f 337 338 342
f 337 342 341
f 338 339 343
f 338 343 342
f 339 340 344
f 339 344 343
f 340 337 341
f 340 341 344
