v 0.00000000 0.00000000 0.00000000
v 0.18500000 0.00000000 -0.00000000
v 0.17594546 0.00000000 -0.05716814
v 0.14966814 0.00000000 -0.10874027
v 0.10874027 0.00000000 -0.14966814
v 0.05716814 0.00000000 -0.17594546
v 0.00000000 0.00000000 -0.18500000
v -0.05716814 0.00000000 -0.17594546
v -0.10874027 0.00000000 -0.14966814
v -0.14966814 0.00000000 -0.10874027
v -0.17594546 0.00000000 -0.05716814
v -0.18500000 0.00000000 -0.00000000
v -0.17594546 0.00000000 0.05716814
v -0.14966814 0.00000000 0.10874027
v -0.10874027 0.00000000 0.14966814
v -0.05716814 0.00000000 0.17594546
v -0.00000000 0.00000000 0.18500000
v 0.05716814 0.00000000 0.17594546
v 0.10874027 0.00000000 0.14966814
v 0.14966814 0.00000000 0.10874027
v 0.17594546 0.00000000 0.05716814
v 0.20000000 0.00800000 -0.00000000
v 0.19021130 0.00800000 -0.06180340
v 0.16180340 0.00800000 -0.11755705
v 0.11755705 0.00800000 -0.16180340
v 0.06180340 0.00800000 -0.19021130
v 0.00000000 0.00800000 -0.20000000
v -0.06180340 0.00800000 -0.19021130
v -0.11755705 0.00800000 -0.16180340
v -0.16180340 0.00800000 -0.11755705
v -0.19021130 0.00800000 -0.06180340
v -0.20000000 0.00800000 -0.00000000
v -0.19021130 0.00800000 0.06180340
v -0.16180340 0.00800000 0.11755705
v -0.11755705 0.00800000 0.16180340
v -0.06180340 0.00800000 0.19021130
v -0.00000000 0.00800000 0.20000000
v 0.06180340 0.00800000 0.19021130
v 0.11755705 0.00800000 0.16180340
v 0.16180340 0.00800000 0.11755705
v 0.19021130 0.00800000 0.06180340
v 0.20000000 0.03100000 -0.00000000
v 0.19021130 0.03100000 -0.06180340
v 0.16180340 0.03100000 -0.11755705
v 0.11755705 0.03100000 -0.16180340
v 0.06180340 0.03100000 -0.19021130
v 0.00000000 0.03100000 -0.20000000
v -0.06180340 0.03100000 -0.19021130
v -0.11755705 0.03100000 -0.16180340
v -0.16180340 0.03100000 -0.11755705
v -0.19021130 0.03100000 -0.06180340
v -0.20000000 0.03100000 -0.00000000
v -0.19021130 0.03100000 0.06180340
v -0.16180340 0.03100000 0.11755705
v -0.11755705 0.03100000 0.16180340
v -0.06180340 0.03100000 0.19021130
v -0.00000000 0.03100000 0.20000000
v 0.06180340 0.03100000 0.19021130
v 0.11755705 0.03100000 0.16180340
v 0.16180340 0.03100000 0.11755705
v 0.19021130 0.03100000 0.06180340
v 0.18300000 0.04600000 -0.00000000
v 0.17404334 0.04600000 -0.05655011
v 0.14805011 0.04600000 -0.10756470
v 0.10756470 0.04600000 -0.14805011
v 0.05655011 0.04600000 -0.17404334
v 0.00000000 0.04600000 -0.18300000
v -0.05655011 0.04600000 -0.17404334
v -0.10756470 0.04600000 -0.14805011
v -0.14805011 0.04600000 -0.10756470
v -0.17404334 0.04600000 -0.05655011
v -0.18300000 0.04600000 -0.00000000
v -0.17404334 0.04600000 0.05655011
v -0.14805011 0.04600000 0.10756470
v -0.10756470 0.04600000 0.14805011
v -0.05655011 0.04600000 0.17404334
v -0.00000000 0.04600000 0.18300000
v 0.05655011 0.04600000 0.17404334
v 0.10756470 0.04600000 0.14805011
v 0.14805011 0.04600000 0.10756470
v 0.17404334 0.04600000 0.05655011
v 0.00000000 0.04600000 0.00000000
v 0.00000000 0.04300000 0.00000000
v 0.03200000 0.04300000 -0.00000000
v 0.02771281 0.04300000 -0.01600000
v 0.01600000 0.04300000 -0.02771281
v 0.00000000 0.04300000 -0.03200000
v -0.01600000 0.04300000 -0.02771281
v -0.02771281 0.04300000 -0.01600000
v -0.03200000 0.04300000 -0.00000000
v -0.02771281 0.04300000 0.01600000
v -0.01600000 0.04300000 0.02771281
v -0.00000000 0.04300000 0.03200000
v 0.01600000 0.04300000 0.02771281
v 0.02771281 0.04300000 0.01600000
v 0.03200000 0.07800000 -0.00000000
v 0.02771281 0.07800000 -0.01600000
v 0.01600000 0.07800000 -0.02771281
v 0.00000000 0.07800000 -0.03200000
v -0.01600000 0.07800000 -0.02771281
v -0.02771281 0.07800000 -0.01600000
v -0.03200000 0.07800000 -0.00000000
v -0.02771281 0.07800000 0.01600000
v -0.01600000 0.07800000 0.02771281
v -0.00000000 0.07800000 0.03200000
v 0.01600000 0.07800000 0.02771281
v 0.02771281 0.07800000 0.01600000
v 0.02000000 0.09000000 -0.00000000
v 0.01732051 0.09000000 -0.01000000
v 0.01000000 0.09000000 -0.01732051
v 0.00000000 0.09000000 -0.02000000
v -0.01000000 0.09000000 -0.01732051
v -0.01732051 0.09000000 -0.01000000
v -0.02000000 0.09000000 -0.00000000
v -0.01732051 0.09000000 0.01000000
v -0.01000000 0.09000000 0.01732051
v -0.00000000 0.09000000 0.02000000
v 0.01000000 0.09000000 0.01732051
v 0.01732051 0.09000000 0.01000000
v 0.00000000 0.09000000 0.00000000
v 0.00000000 0.07500000 0.00000000
v 0.01400000 0.07500000 -0.00000000
v 0.01212436 0.07500000 -0.00700000
v 0.00700000 0.07500000 -0.01212436
v 0.00000000 0.07500000 -0.01400000
v -0.00700000 0.07500000 -0.01212436
v -0.01212436 0.07500000 -0.00700000
v -0.01400000 0.07500000 -0.00000000
v -0.01212436 0.07500000 0.00700000
v -0.00700000 0.07500000 0.01212436
v -0.00000000 0.07500000 0.01400000
v 0.00700000 0.07500000 0.01212436
v 0.01212436 0.07500000 0.00700000
v 0.01400000 1.40000000 -0.00000000
v 0.01212436 1.40000000 -0.00700000
v 0.00700000 1.40000000 -0.01212436
v 0.00000000 1.40000000 -0.01400000
v -0.00700000 1.40000000 -0.01212436
v -0.01212436 1.40000000 -0.00700000
v -0.01400000 1.40000000 -0.00000000
v -0.01212436 1.40000000 0.00700000
v -0.00700000 1.40000000 0.01212436
v -0.00000000 1.40000000 0.01400000
v 0.00700000 1.40000000 0.01212436
v 0.01212436 1.40000000 0.00700000
v 0.00000000 1.40000000 0.00000000
v 0.00000000 1.35000000 0.00000000
v 0.03000000 1.35000000 -0.00000000
v 0.02598076 1.35000000 -0.01500000
v 0.01500000 1.35000000 -0.02598076
v 0.00000000 1.35000000 -0.03000000
v -0.01500000 1.35000000 -0.02598076
v -0.02598076 1.35000000 -0.01500000
v -0.03000000 1.35000000 -0.00000000
v -0.02598076 1.35000000 0.01500000
v -0.01500000 1.35000000 0.02598076
v -0.00000000 1.35000000 0.03000000
v 0.01500000 1.35000000 0.02598076
v 0.02598076 1.35000000 0.01500000
v 0.03000000 1.43000000 -0.00000000
v 0.02598076 1.43000000 -0.01500000
v 0.01500000 1.43000000 -0.02598076
v 0.00000000 1.43000000 -0.03000000
v -0.01500000 1.43000000 -0.02598076
v -0.02598076 1.43000000 -0.01500000
v -0.03000000 1.43000000 -0.00000000
v -0.02598076 1.43000000 0.01500000
v -0.01500000 1.43000000 0.02598076
v -0.00000000 1.43000000 0.03000000
v 0.01500000 1.43000000 0.02598076
v 0.02598076 1.43000000 0.01500000
v 0.00000000 1.43000000 0.00000000
v 0.23000000 1.35500000 -0.00000000
v 0.21249229 1.35500000 -0.08801719
v 0.16263456 1.35500000 -0.16263456
v 0.08801719 1.35500000 -0.21249229
v 0.00000000 1.35500000 -0.23000000
v -0.08801719 1.35500000 -0.21249229
v -0.16263456 1.35500000 -0.16263456
v -0.21249229 1.35500000 -0.08801719
v -0.23000000 1.35500000 -0.00000000
v -0.21249229 1.35500000 0.08801719
v -0.16263456 1.35500000 0.16263456
v -0.08801719 1.35500000 0.21249229
v -0.00000000 1.35500000 0.23000000
v 0.08801719 1.35500000 0.21249229
v 0.16263456 1.35500000 0.16263456
v 0.21249229 1.35500000 0.08801719
v 0.23300000 1.36500000 -0.00000000
v 0.21526393 1.36500000 -0.08916524
v 0.16475588 1.36500000 -0.16475588
v 0.08916524 1.36500000 -0.21526393
v 0.00000000 1.36500000 -0.23300000
v -0.08916524 1.36500000 -0.21526393
v -0.16475588 1.36500000 -0.16475588
v -0.21526393 1.36500000 -0.08916524
v -0.23300000 1.36500000 -0.00000000
v -0.21526393 1.36500000 0.08916524
v -0.16475588 1.36500000 0.16475588
v -0.08916524 1.36500000 0.21526393
v -0.00000000 1.36500000 0.23300000
v 0.08916524 1.36500000 0.21526393
v 0.16475588 1.36500000 0.16475588
v 0.21526393 1.36500000 0.08916524
v 0.13000000 1.64000000 -0.00000000
v 0.12010434 1.64000000 -0.04974885
v 0.09192388 1.64000000 -0.09192388
v 0.04974885 1.64000000 -0.12010434
v 0.00000000 1.64000000 -0.13000000
v -0.04974885 1.64000000 -0.12010434
v -0.09192388 1.64000000 -0.09192388
v -0.12010434 1.64000000 -0.04974885
v -0.13000000 1.64000000 -0.00000000
v -0.12010434 1.64000000 0.04974885
v -0.09192388 1.64000000 0.09192388
v -0.04974885 1.64000000 0.12010434
v -0.00000000 1.64000000 0.13000000
v 0.04974885 1.64000000 0.12010434
v 0.09192388 1.64000000 0.09192388
v 0.12010434 1.64000000 0.04974885
v 0.12400000 1.64000000 -0.00000000
v 0.11456106 1.64000000 -0.04745275
v 0.08768124 1.64000000 -0.08768124
v 0.04745275 1.64000000 -0.11456106
v 0.00000000 1.64000000 -0.12400000
v -0.04745275 1.64000000 -0.11456106
v -0.08768124 1.64000000 -0.08768124
v -0.11456106 1.64000000 -0.04745275
v -0.12400000 1.64000000 -0.00000000
v -0.11456106 1.64000000 0.04745275
v -0.08768124 1.64000000 0.08768124
v -0.04745275 1.64000000 0.11456106
v -0.00000000 1.64000000 0.12400000
v 0.04745275 1.64000000 0.11456106
v 0.08768124 1.64000000 0.08768124
v 0.11456106 1.64000000 0.04745275
v 0.22400000 1.36500000 -0.00000000
v 0.20694902 1.36500000 -0.08572109
v 0.15839192 1.36500000 -0.15839192
v 0.08572109 1.36500000 -0.20694902
v 0.00000000 1.36500000 -0.22400000
v -0.08572109 1.36500000 -0.20694902
v -0.15839192 1.36500000 -0.15839192
v -0.20694902 1.36500000 -0.08572109
v -0.22400000 1.36500000 -0.00000000
v -0.20694902 1.36500000 0.08572109
v -0.15839192 1.36500000 0.15839192
v -0.08572109 1.36500000 0.20694902
v -0.00000000 1.36500000 0.22400000
v 0.08572109 1.36500000 0.20694902
v 0.15839192 1.36500000 0.15839192
v 0.20694902 1.36500000 0.08572109
v 0.22200000 1.35500000 -0.00000000
v 0.20510126 1.35500000 -0.08495572
v 0.15697771 1.35500000 -0.15697771
v 0.08495572 1.35500000 -0.20510126
v 0.00000000 1.35500000 -0.22200000
v -0.08495572 1.35500000 -0.20510126
v -0.15697771 1.35500000 -0.15697771
v -0.20510126 1.35500000 -0.08495572
v -0.22200000 1.35500000 -0.00000000
v -0.20510126 1.35500000 0.08495572
v -0.15697771 1.35500000 0.15697771
v -0.08495572 1.35500000 0.20510126
v -0.00000000 1.35500000 0.22200000
v 0.08495572 1.35500000 0.20510126
v 0.15697771 1.35500000 0.15697771
v 0.20510126 1.35500000 0.08495572
v 0.00000000 1.41500000 0.00000000
v 0.02200000 1.41500000 -0.00000000
v 0.01905256 1.41500000 -0.01100000
v 0.01100000 1.41500000 -0.01905256
v 0.00000000 1.41500000 -0.02200000
v -0.01100000 1.41500000 -0.01905256
v -0.01905256 1.41500000 -0.01100000
v -0.02200000 1.41500000 -0.00000000
v -0.01905256 1.41500000 0.01100000
v -0.01100000 1.41500000 0.01905256
v -0.00000000 1.41500000 0.02200000
v 0.01100000 1.41500000 0.01905256
v 0.01905256 1.41500000 0.01100000
v 0.03700000 1.44000000 -0.00000000
v 0.03204294 1.44000000 -0.01850000
v 0.01850000 1.44000000 -0.03204294
v 0.00000000 1.44000000 -0.03700000
v -0.01850000 1.44000000 -0.03204294
v -0.03204294 1.44000000 -0.01850000
v -0.03700000 1.44000000 -0.00000000
v -0.03204294 1.44000000 0.01850000
v -0.01850000 1.44000000 0.03204294
v -0.00000000 1.44000000 0.03700000
v 0.01850000 1.44000000 0.03204294
v 0.03204294 1.44000000 0.01850000
v 0.03700000 1.48000000 -0.00000000
v 0.03204294 1.48000000 -0.01850000
v 0.01850000 1.48000000 -0.03204294
v 0.00000000 1.48000000 -0.03700000
v -0.01850000 1.48000000 -0.03204294
v -0.03204294 1.48000000 -0.01850000
v -0.03700000 1.48000000 -0.00000000
v -0.03204294 1.48000000 0.01850000
v -0.01850000 1.48000000 0.03204294
v -0.00000000 1.48000000 0.03700000
v 0.01850000 1.48000000 0.03204294
v 0.03204294 1.48000000 0.01850000
v 0.02000000 1.50500000 -0.00000000
v 0.01732051 1.50500000 -0.01000000
v 0.01000000 1.50500000 -0.01732051
v 0.00000000 1.50500000 -0.02000000
v -0.01000000 1.50500000 -0.01732051
v -0.01732051 1.50500000 -0.01000000
v -0.02000000 1.50500000 -0.00000000
v -0.01732051 1.50500000 0.01000000
v -0.01000000 1.50500000 0.01732051
v -0.00000000 1.50500000 0.02000000
v 0.01000000 1.50500000 0.01732051
v 0.01732051 1.50500000 0.01000000
v 0.00000000 1.51000000 0.00000000
s off
o Head
f 173 174 190
f 173 190 189
f 174 175 191
f 174 191 190
f 175 176 192
f 175 192 191
f 176 177 193
f 176 193 192
f 177 178 194
f 177 194 193
f 178 179 195
f 178 195 194
f 179 180 196
f 179 196 195
f 180 181 197
f 180 197 196
f 181 182 198
f 181 198 197
f 182 183 199
f 182 199 198
f 183 184 200
f 183 200 199
f 184 185 201
f 184 201 200
f 185 186 202
f 185 202 201
f 186 187 203
f 186 203 202
f 187 188 204
f 187 204 203
f 188 173 189
f 188 189 204
f 189 190 206
f 189 206 205
f 190 191 207
f 190 207 206
f 191 192 208
f 191 208 207
f 192 193 209
f 192 209 208
f 193 194 210
f 193 210 209
f 194 195 211
f 194 211 210
f 195 196 212
f 195 212 211
f 196 197 213
f 196 213 212
f 197 198 214
f 197 214 213
f 198 199 215
f 198 215 214
f 199 200 216
f 199 216 215
f 200 201 217
f 200 217 216
f 201 202 218
f 201 218 217
f 202 203 219
f 202 219 218
f 203 204 220
f 203 220 219
f 204 189 205
f 204 205 220
f 205 206 222
f 205 222 221
f 206 207 223
f 206 223 222
f 207 208 224
f 207 224 223
f 208 209 225
f 208 225 224
f 209 210 226
f 209 226 225
f 210 211 227
f 210 227 226
f 211 212 228
f 211 228 227
f 212 213 229
f 212 229 228
f 213 214 230
f 213 230 229
f 214 215 231
f 214 231 230
f 215 216 232
f 215 232 231
f 216 217 233
f 216 233 232
f 217 218 234
f 217 234 233
f 218 219 235
f 218 235 234
f 219 220 236
f 219 236 235
f 220 205 221
f 220 221 236
f 221 222 238
f 221 238 237
f 222 223 239
f 222 239 238
f 223 224 240
f 223 240 239
f 224 225 241
f 224 241 240
f 225 226 242
f 225 242 241
f 226 227 243
f 226 243 242
f 227 228 244
f 227 244 243
f 228 229 245
f 228 245 244
f 229 230 246
f 229 246 245
f 230 231 247
f 230 247 246
f 231 232 248
f 231 248 247
f 232 233 249
f 232 249 248
f 233 234 250
f 233 250 249
f 234 235 251
f 234 251 250
f 235 236 252
f 235 252 251
f 236 221 237
f 236 237 252
f 237 238 254
f 237 254 253
f 238 239 255
f 238 255 254
f 239 240 256
f 239 256 255
f 240 241 257
f 240 257 256
f 241 242 258
f 241 258 257
f 242 243 259
f 242 259 258
f 243 244 260
f 243 260 259
f 244 245 261
f 244 261 260
f 245 246 262
f 245 262 261
f 246 247 263
f 246 263 262
f 247 248 264
f 247 264 263
f 248 249 265
f 248 265 264
f 249 250 266
f 249 266 265
f 250 251 267
f 250 267 266
f 251 252 268
f 251 268 267
f 252 237 253
f 252 253 268
f 253 254 174
f 253 174 173
f 254 255 175
f 254 175 174
f 255 256 176
f 255 176 175
f 256 257 177
f 256 177 176
f 257 258 178
f 257 178 177
f 258 259 179
f 258 179 178
f 259 260 180
f 259 180 179
f 260 261 181
f 260 181 180
f 261 262 182
f 261 182 181
f 262 263 183
f 262 183 182
f 263 264 184
f 263 184 183
f 264 265 185
f 264 185 184
f 265 266 186
f 265 186 185
f 266 267 187
f 266 187 186
f 267 268 188
f 267 188 187
f 268 253 173
f 268 173 188
f 269 271 270
f 269 272 271
f 269 273 272
f 269 274 273
f 269 275 274
f 269 276 275
f 269 277 276
f 269 278 277
f 269 279 278
f 269 280 279
f 269 281 280
f 269 270 281
f 270 271 283
f 270 283 282
f 271 272 284
f 271 284 283
f 272 273 285
f 272 285 284
f 273 274 286
f 273 286 285
f 274 275 287
f 274 287 286
f 275 276 288
f 275 288 287
f 276 277 289
f 276 289 288
f 277 278 290
f 277 290 289
f 278 279 291
f 278 291 290
f 279 280 292
f 279 292 291
f 280 281 293
f 280 293 292
f 281 270 282
f 281 282 293
f 282 283 295
f 282 295 294
f 283 284 296
f 283 296 295
f 284 285 297
f 284 297 296
f 285 286 298
f 285 298 297
f 286 287 299
f 286 299 298
f 287 288 300
f 287 300 299
f 288 289 301
f 288 301 300
f 289 290 302
f 289 302 301
f 290 291 303
f 290 303 302
f 291 292 304
f 291 304 303
f 292 293 305
f 292 305 304
f 293 282 294
f 293 294 305
f 294 295 307
f 294 307 306
f 295 296 308
f 295 308 307
f 296 297 309
f 296 309 308
f 297 298 310
f 297 310 309
f 298 299 311
f 298 311 310
f 299 300 312
f 299 312 311
f 300 301 313
f 300 313 312
f 301 302 314
f 301 314 313
f 302 303 315
f 302 315 314
f 303 304 316
f 303 316 315
f 304 305 317
f 304 317 316
f 305 294 306
f 305 306 317
f 306 307 318
f 307 308 318
f 308 309 318
f 309 310 318
f 310 311 318
f 311 312 318
f 312 313 318
f 313 314 318
f 314 315 318
f 315 316 318
f 316 317 318
f 317 306 318
o Rest
f 1 3 2
f 1 4 3
f 1 5 4
f 1 6 5
f 1 7 6
f 1 8 7
f 1 9 8
f 1 10 9
f 1 11 10
f 1 12 11
f 1 13 12
f 1 14 13
f 1 15 14
f 1 16 15
f 1 17 16
f 1 18 17
f 1 19 18
f 1 20 19
f 1 21 20
f 1 2 21
f 2 3 23
f 2 23 22
f 3 4 24
f 3 24 23
f 4 5 25
f 4 25 24
f 5 6 26
f 5 26 25
f 6 7 27
f 6 27 26
f 7 8 28
f 7 28 27
f 8 9 29
f 8 29 28
f 9 10 30
f 9 30 29
f 10 11 31
f 10 31 30
f 11 12 32
f 11 32 31
f 12 13 33
f 12 33 32
f 13 14 34
f 13 34 33
f 14 15 35
f 14 35 34
f 15 16 36
f 15 36 35
f 16 17 37
f 16 37 36
f 17 18 38
f 17 38 37
f 18 19 39
f 18 39 38
f 19 20 40
f 19 40 39
f 20 21 41
f 20 41 40
f 21 2 22
f 21 22 41
f 22 23 43
f 22 43 42
f 23 24 44
f 23 44 43
f 24 25 45
f 24 45 44
f 25 26 46
f 25 46 45
f 26 27 47
f 26 47 46
f 27 28 48
f 27 48 47
f 28 29 49
f 28 49 48
f 29 30 50
f 29 50 49
f 30 31 51
f 30 51 50
f 31 32 52
f 31 52 51
f 32 33 53
f 32 53 52
f 33 34 54
f 33 54 53
f 34 35 55
f 34 55 54
f 35 36 56
f 35 56 55
f 36 37 57
f 36 57 56
f 37 38 58
f 37 58 57
f 38 39 59
f 38 59 58
f 39 40 60
f 39 60 59
f 40 41 61
f 40 61 60
f 41 22 42
f 41 42 61
f 42 43 63
f 42 63 62
f 43 44 64
f 43 64 63
f 44 45 65
f 44 65 64
f 45 46 66
f 45 66 65
f 46 47 67
f 46 67 66
f 47 48 68
f 47 68 67
f 48 49 69
f 48 69 68
f 49 50 70
f 49 70 69
f 50 51 71
f 50 71 70
f 51 52 72
f 51 72 71
f 52 53 73
f 52 73 72
f 53 54 74
f 53 74 73
f 54 55 75
f 54 75 74
f 55 56 76
f 55 76 75
f 56 57 77
f 56 77 76
f 57 58 78
f 57 78 77
f 58 59 79
f 58 79 78
f 59 60 80
f 59 80 79
f 60 61 81
f 60 81 80
f 61 42 62
f 61 62 81
f 62 63 82
f 63 64 82
f 64 65 82
f 65 66 82
f 66 67 82
f 67 68 82
f 68 69 82
f 69 70 82
f 70 71 82
f 71 72 82
f 72 73 82
f 73 74 82
f 74 75 82
f 75 76 82
f 76 77 82
f 77 78 82
f 78 79 82
f 79 80 82
f 80 81 82
f 81 62 82
f 83 85 84
f 83 86 85
f 83 87 86
f 83 88 87
f 83 89 88
f 83 90 89
f 83 91 90
f 83 92 91
f 83 93 92
f 83 94 93
f 83 95 94
f 83 84 95
f 84 85 97
f 84 97 96
f 85 86 98
f 85 98 97
f 86 87 99
f 86 99 98
f 87 88 100
f 87 100 99
f 88 89 101
f 88 101 100
f 89 90 102
f 89 102 101
f 90 91 103
f 90 103 102
f 91 92 104
f 91 104 103
f 92 93 105
f 92 105 104
f 93 94 106
f 93 106 105
f 94 95 107
f 94 107 106
f 95 84 96
f 95 96 107
f 96 97 109
f 96 109 108
f 97 98 110
f 97 110 109
f 98 99 111
f 98 111 110
f 99 100 112
f 99 112 111
f 100 101 113
f 100 113 112
f 101 102 114
f 101 114 113
f 102 103 115
f 102 115 114
f 103 104 116
f 103 116 115
f 104 105 117
f 104 117 116
f 105 106 118
f 105 118 117
f 106 107 119
f 106 119 118
f 107 96 108
f 107 108 119
f 108 109 120
f 109 110 120
f 110 111 120
f 111 112 120
f 112 113 120
f 113 114 120
f 114 115 120
f 115 116 120
f 116 117 120
f 117 118 120
f 118 119 120
f 119 108 120
f 121 123 122
f 121 124 123
f 121 125 124
f 121 126 125
f 121 127 126
f 121 128 127
f 121 129 128
f 121 130 129
f 121 131 130
f 121 132 131
f 121 133 132
f 121 122 133
f 122 123 135
f 122 135 134
f 123 124 136
f 123 136 135
f 124 125 137
f 124 137 136
f 125 126 138
f 125 138 137
f 126 127 139
f 126 139 138
f 127 128 140
f 127 140 139
f 128 129 141
f 128 141 140
f 129 130 142
f 129 142 141
f 130 131 143
f 130 143 142
f 131 132 144
f 131 144 143
f 132 133 145
f 132 145 144
f 133 122 134
f 133 134 145
f 134 135 146
f 135 136 146
f 136 137 146
f 137 138 146
f 138 139 146
f 139 140 146
f 140 141 146
f 141 142 146
f 142 143 146
f 143 144 146
f 144 145 146
f 145 134 146
f 147 149 148
f 147 150 149
f 147 151 150
f 147 152 151
f 147 153 152
f 147 154 153
f 147 155 154
f 147 156 155
f 147 157 156
f 147 158 157
f 147 159 158
f 147 148 159
f 148 149 161
f 148 161 160
f 149 150 162
f 149 162 161
f 150 151 163
f 150 163 162
f 151 152 164
f 151 164 163
f 152 153 165
f 152 165 164
f 153 154 166
f 153 166 165
f 154 155 167
f 154 167 166
f 155 156 168
f 155 168 167
f 156 157 169
f 156 169 168
f 157 158 170
f 157 170 169
f 158 159 171
f 158 171 170
f 159 148 160
f 159 160 171
f 160 161 172
f 161 162 172
f 162 163 172
f 163 164 172
f 164 165 172
f 165 166 172
f 166 167 172
f 167 168 172
f 168 169 172
f 169 170 172
f 170 171 172
f 171 160 172
