o ufo_disk
v 0.65 -0.3 0
v 0.600522 -0.3 0.248744
v 0.459619 -0.3 0.459619
v 0.248744 -0.3 0.600522
v 0 -0.3 0.65
v -0.248744 -0.3 0.600522
v -0.459619 -0.3 0.459619
v -0.600522 -0.3 0.248744
v -0.65 -0.3 0
v -0.600522 -0.3 -0.248744
v -0.459619 -0.3 -0.459619
v -0.248744 -0.3 -0.600522
v 0 -0.3 -0.65
v 0.248744 -0.3 -0.600522
v 0.459619 -0.3 -0.459619
v 0.600522 -0.3 -0.248744
v 1.8 0 0
v 1.662983 0 0.68883
v 1.272792 0 1.272792
v 0.68883 0 1.662983
v 0 0 1.8
v -0.68883 0 1.662983
v -1.272792 0 1.272792
v -1.662983 0 0.68883
v -1.8 0 0
v -1.662983 0 -0.68883
v -1.272792 0 -1.272792
v -0.68883 0 -1.662983
v 0 0 -1.8
v 0.68883 0 -1.662983
v 1.272792 0 -1.272792
v 1.662983 0 -0.68883
v 0.8 0.18 0
v 0.739104 0.18 0.306147
v 0.565685 0.18 0.565685
v 0.306147 0.18 0.739104
v 0 0.18 0.8
v -0.306147 0.18 0.739104
v -0.565685 0.18 0.565685
v -0.739104 0.18 0.306147
v -0.8 0.18 0
v -0.739104 0.18 -0.306147
v -0.565685 0.18 -0.565685
v -0.306147 0.18 -0.739104
v 0 0.18 -0.8
v 0.306147 0.18 -0.739104
v 0.565685 0.18 -0.565685
v 0.739104 0.18 -0.306147
v 0 -0.3 0
v 0 0.18 0
f 1 17 2
f 2 17 18
f 2 18 3
f 3 18 19
f 3 19 4
f 4 19 20
f 4 20 5
f 5 20 21
f 5 21 6
f 6 21 22
f 6 22 7
f 7 22 23
f 7 23 8
f 8 23 24
f 8 24 9
f 9 24 25
f 9 25 10
f 10 25 26
f 10 26 11
f 11 26 27
f 11 27 12
f 12 27 28
f 12 28 13
f 13 28 29
f 13 29 14
f 14 29 30
f 14 30 15
f 15 30 31
f 15 31 16
f 16 31 32
f 16 32 1
f 1 32 17
f 17 33 18
f 18 33 34
f 18 34 19
f 19 34 35
f 19 35 20
f 20 35 36
f 20 36 21
f 21 36 37
f 21 37 22
f 22 37 38
f 22 38 23
f 23 38 39
f 23 39 24
f 24 39 40
f 24 40 25
f 25 40 41
f 25 41 26
f 26 41 42
f 26 42 27
f 27 42 43
f 27 43 28
f 28 43 44
f 28 44 29
f 29 44 45
f 29 45 30
f 30 45 46
f 30 46 31
f 31 46 47
f 31 47 32
f 32 47 48
f 32 48 17
f 17 48 33
f 49 1 2
f 50 34 33
f 49 2 3
f 50 35 34
f 49 3 4
f 50 36 35
f 49 4 5
f 50 37 36
f 49 5 6
f 50 38 37
f 49 6 7
f 50 39 38
f 49 7 8
f 50 40 39
f 49 8 9
f 50 41 40
f 49 9 10
f 50 42 41
f 49 10 11
f 50 43 42
f 49 11 12
f 50 44 43
f 49 12 13
f 50 45 44
f 49 13 14
f 50 46 45
f 49 14 15
f 50 47 46
f 49 15 16
f 50 48 47
f 49 16 1
f 50 33 48
